<?xml version="1.0" encoding="UTF-8"?>
<!DOCTYPE svg PUBLIC "-//W3C//DTD SVG 1.1//EN" "http://www.w3.org/Graphics/SVG/1.1/DTD/svg11.dtd">
<svg version="1.2" width="127mm" height="127mm" viewBox="0 0 12700 12700" preserveAspectRatio="xMidYMid" fill-rule="evenodd" stroke-width="28.222" stroke-linejoin="round" xmlns="http://www.w3.org/2000/svg" xmlns:ooo="http://xml.openoffice.org/svg/export" xmlns:xlink="http://www.w3.org/1999/xlink" xmlns:presentation="http://sun.com/xmlns/staroffice/presentation" xmlns:smil="http://www.w3.org/2001/SMIL20/" xmlns:anim="urn:oasis:names:tc:opendocument:xmlns:animation:1.0" xml:space="preserve">
 <defs class="ClipPathGroup">
  <clipPath id="presentation_clip_path" clipPathUnits="userSpaceOnUse">
   <rect x="0" y="0" width="12700" height="12700"/>
  </clipPath>
  <clipPath id="presentation_clip_path_shrink" clipPathUnits="userSpaceOnUse">
   <rect x="12" y="12" width="12675" height="12675"/>
  </clipPath>
 </defs>
 <defs class="TextShapeIndex">
  <g ooo:slide="id1" ooo:id-list="id3 id4 id5"/>
 </defs>
 <defs class="EmbeddedBulletChars">
  <g id="bullet-char-template-57356" transform="scale(0.00048828125,-0.00048828125)">
   <path d="M 580,1141 L 1163,571 580,0 -4,571 580,1141 Z"/>
  </g>
  <g id="bullet-char-template-57354" transform="scale(0.00048828125,-0.00048828125)">
   <path d="M 8,1128 L 1137,1128 1137,0 8,0 8,1128 Z"/>
  </g>
  <g id="bullet-char-template-10146" transform="scale(0.00048828125,-0.00048828125)">
   <path d="M 174,0 L 602,739 174,1481 1456,739 174,0 Z M 1358,739 L 309,1346 659,739 1358,739 Z"/>
  </g>
  <g id="bullet-char-template-10132" transform="scale(0.00048828125,-0.00048828125)">
   <path d="M 2015,739 L 1276,0 717,0 1260,543 174,543 174,936 1260,936 717,1481 1274,1481 2015,739 Z"/>
  </g>
  <g id="bullet-char-template-10007" transform="scale(0.00048828125,-0.00048828125)">
   <path d="M 0,-2 C -7,14 -16,27 -25,37 L 356,567 C 262,823 215,952 215,954 215,979 228,992 255,992 264,992 276,990 289,987 310,991 331,999 354,1012 L 381,999 492,748 772,1049 836,1024 860,1049 C 881,1039 901,1025 922,1006 886,937 835,863 770,784 769,783 710,716 594,584 L 774,223 C 774,196 753,168 711,139 L 727,119 C 717,90 699,76 672,76 641,76 570,178 457,381 L 164,-76 C 142,-110 111,-127 72,-127 30,-127 9,-110 8,-76 1,-67 -2,-52 -2,-32 -2,-23 -1,-13 0,-2 Z"/>
  </g>
  <g id="bullet-char-template-10004" transform="scale(0.00048828125,-0.00048828125)">
   <path d="M 285,-33 C 182,-33 111,30 74,156 52,228 41,333 41,471 41,549 55,616 82,672 116,743 169,778 240,778 293,778 328,747 346,684 L 369,508 C 377,444 397,411 428,410 L 1163,1116 C 1174,1127 1196,1133 1229,1133 1271,1133 1292,1118 1292,1087 L 1292,965 C 1292,929 1282,901 1262,881 L 442,47 C 390,-6 338,-33 285,-33 Z"/>
  </g>
  <g id="bullet-char-template-9679" transform="scale(0.00048828125,-0.00048828125)">
   <path d="M 813,0 C 632,0 489,54 383,161 276,268 223,411 223,592 223,773 276,916 383,1023 489,1130 632,1184 813,1184 992,1184 1136,1130 1245,1023 1353,916 1407,772 1407,592 1407,412 1353,268 1245,161 1136,54 992,0 813,0 Z"/>
  </g>
  <g id="bullet-char-template-8226" transform="scale(0.00048828125,-0.00048828125)">
   <path d="M 346,457 C 273,457 209,483 155,535 101,586 74,649 74,723 74,796 101,859 155,911 209,963 273,989 346,989 419,989 480,963 531,910 582,859 608,796 608,723 608,648 583,586 532,535 482,483 420,457 346,457 Z"/>
  </g>
  <g id="bullet-char-template-8211" transform="scale(0.00048828125,-0.00048828125)">
   <path d="M -4,459 L 1135,459 1135,606 -4,606 -4,459 Z"/>
  </g>
  <g id="bullet-char-template-61548" transform="scale(0.00048828125,-0.00048828125)">
   <path d="M 173,740 C 173,903 231,1043 346,1159 462,1274 601,1332 765,1332 928,1332 1067,1274 1183,1159 1299,1043 1357,903 1357,740 1357,577 1299,437 1183,322 1067,206 928,148 765,148 601,148 462,206 346,322 231,437 173,577 173,740 Z"/>
  </g>
 </defs>
 <defs class="TextEmbeddedBitmaps"/>
 <g>
  <g id="id2" class="Master_Slide">
   <g id="bg-id2" class="Background"/>
   <g id="bo-id2" class="BackgroundObjects"/>
  </g>
 </g>
 <g class="SlideGroup">
  <g>
   <g id="container-id1">
    <g id="id1" class="Slide" clip-path="url(#presentation_clip_path)">
     <g class="Page">
      <g class="Group">
       <g class="com.sun.star.drawing.CustomShape">
        <g id="id3">
         <rect class="BoundingBox" stroke="none" fill="none" x="-1" y="-1" width="12704" height="12704"/>
         <path fill="rgb(255,246,133)" stroke="none" d="M 2116,0 C 2116,1058 1058,2116 0,2116 L 0,10584 C 1058,10584 2116,11642 2116,12701 L 10584,12701 C 10584,11642 11642,10584 12701,10584 L 12701,2116 C 11642,2116 10584,1058 10584,0 L 2116,0 Z M 0,0 L 0,0 Z M 12701,12701 L 12701,12701 Z"/>
         <path fill="none" stroke="rgb(52,101,164)" d="M 2116,0 C 2116,1058 1058,2116 0,2116 L 0,10584 C 1058,10584 2116,11642 2116,12701 L 10584,12701 C 10584,11642 11642,10584 12701,10584 L 12701,2116 C 11642,2116 10584,1058 10584,0 L 2116,0 Z"/>
         <path fill="none" stroke="rgb(52,101,164)" d="M 0,0 L 0,0 Z"/>
         <path fill="none" stroke="rgb(52,101,164)" d="M 12701,12701 L 12701,12701 Z"/>
        </g>
       </g>
       <g class="Graphic">
        <g id="id4">
         <rect class="BoundingBox" stroke="none" fill="none" x="5715" y="1904" width="6858" height="7877"/>
         <path fill="rgb(255,255,213)" stroke="none" d="M 9106,4546 C 8601,4725 8822,5213 9238,5342 9655,5472 10312,4681 10773,5064 11233,5447 11387,6385 11079,6875 10772,7364 9850,6731 9543,7021 9236,7312 9354,7871 9851,8037 10349,8203 11183,8537 11535,7684 11886,6831 11865,5409 11258,4624 10651,3840 9611,4366 9106,4546 L 9106,4546 Z"/>
         <path fill="none" stroke="rgb(0,0,0)" stroke-width="76" stroke-linejoin="miter" d="M 9106,4546 C 8601,4725 8822,5213 9238,5342 9655,5472 10312,4681 10773,5064 11233,5447 11387,6385 11079,6875 10772,7364 9850,6731 9543,7021 9236,7312 9354,7871 9851,8037 10349,8203 11183,8537 11535,7684 11886,6831 11865,5409 11258,4624 10651,3840 9611,4366 9106,4546 L 9106,4546 Z"/>
         <path fill="rgb(244,202,51)" stroke="none" d="M 6338,4539 C 7620,4356 9103,4203 9928,3706 10284,5093 10813,7172 11369,8640 11474,9026 7546,9768 7481,9195 7320,8113 6920,6261 6338,4539 L 6338,4539 Z"/>
         <path fill="none" stroke="rgb(0,0,0)" stroke-width="95" stroke-linejoin="miter" d="M 6338,4539 C 7620,4356 9103,4203 9928,3706 10284,5093 10813,7172 11369,8640 11474,9026 7546,9768 7481,9195 7320,8113 6920,6261 6338,4539 L 6338,4539 Z"/>
         <path fill="rgb(244,177,51)" stroke="none" d="M 8037,6836 C 8142,7230 8215,7568 8271,7916 8327,8265 8349,8519 8341,8730 8333,8940 8298,9042 8228,9057 8159,9073 8076,8996 7963,8812 7850,8628 7742,8393 7616,8060 7491,7726 7386,7395 7281,7001 7280,6997 7279,6993 7278,6988 7277,6984 7276,6980 7274,6976 7170,6582 7096,6244 7040,5895 6984,5547 6963,5292 6970,5082 6978,4872 7014,4769 7083,4754 7153,4739 7236,4816 7348,4999 7461,5183 7569,5419 7695,5752 7820,6085 7925,6417 8030,6810 8031,6815 8032,6819 8034,6823 8035,6828 8036,6831 8037,6836 Z"/>
         <path fill="none" stroke="rgb(0,0,0)" stroke-width="52" stroke-linejoin="miter" d="M 8034,6823 L 8034,6823 C 8035,6828 8036,6831 8037,6836 8142,7230 8215,7568 8271,7916 8327,8265 8349,8519 8341,8730 8333,8940 8298,9042 8228,9057 8159,9073 8076,8996 7963,8812 7850,8628 7742,8393 7616,8060 7491,7726 7386,7395 7281,7001 7280,6997 7279,6993 7278,6988 L 7278,6988 C 7277,6984 7276,6980 7274,6976 7170,6582 7096,6244 7040,5895 6984,5547 6963,5292 6970,5082 6978,4872 7014,4769 7083,4754 7153,4739 7236,4816 7348,4999 7461,5183 7569,5419 7695,5752 7820,6085 7925,6417 8030,6810 8031,6815 8032,6819 8034,6823 L 8034,6823 Z"/>
         <path fill="rgb(244,177,51)" stroke="none" d="M 9312,6744 C 9428,7136 9510,7472 9576,7819 9642,8166 9671,8420 9670,8630 9668,8841 9636,8944 9566,8961 9497,8978 9412,8903 9294,8722 9176,8541 9061,8308 8926,7978 8791,7647 8677,7319 8561,6928 8559,6923 8558,6919 8557,6915 8556,6910 8555,6907 8553,6902 8437,6511 8354,6175 8288,5828 8222,5480 8193,5227 8195,5016 8197,4806 8229,4703 8298,4686 8367,4669 8453,4744 8570,4925 8688,5106 8804,5339 8939,5669 9074,5999 9188,6328 9304,6719 9305,6724 9306,6727 9308,6732 9309,6736 9310,6740 9312,6744 Z"/>
         <path fill="none" stroke="rgb(0,0,0)" stroke-width="52" stroke-linejoin="miter" d="M 9308,6732 L 9308,6732 C 9309,6736 9310,6740 9312,6744 9428,7136 9510,7472 9576,7819 9642,8166 9671,8420 9670,8630 9668,8841 9636,8944 9566,8961 9497,8978 9412,8903 9294,8722 9176,8541 9061,8308 8926,7978 8791,7647 8677,7319 8561,6928 8559,6923 8558,6919 8557,6915 L 8557,6915 C 8556,6910 8555,6907 8553,6902 8437,6511 8354,6175 8288,5828 8222,5480 8193,5227 8195,5016 8197,4806 8229,4703 8298,4686 8367,4669 8453,4744 8570,4925 8688,5106 8804,5339 8939,5669 9074,5999 9188,6328 9304,6719 9305,6724 9306,6727 9308,6732 L 9308,6732 Z"/>
         <path fill="rgb(244,177,51)" stroke="none" d="M 10439,6479 C 10562,6868 10651,7203 10723,7549 10795,7895 10829,8149 10831,8359 10833,8569 10803,8673 10734,8691 10665,8709 10579,8635 10457,8456 10336,8277 10217,8046 10076,7717 9935,7389 9814,7062 9691,6673 9690,6668 9689,6665 9687,6660 9686,6656 9685,6652 9683,6648 9560,6258 9471,5923 9399,5577 9327,5231 9293,4978 9291,4767 9289,4557 9319,4453 9388,4436 9457,4418 9543,4491 9665,4670 9786,4850 9905,5081 10046,5409 10187,5737 10308,6064 10431,6453 10432,6458 10433,6462 10435,6466 10436,6470 10437,6474 10439,6479 Z"/>
         <path fill="none" stroke="rgb(0,0,0)" stroke-width="52" stroke-linejoin="miter" d="M 10435,6466 L 10435,6466 C 10436,6470 10437,6474 10439,6479 10562,6868 10651,7203 10723,7549 10795,7895 10829,8149 10831,8359 10833,8569 10803,8673 10734,8691 10665,8709 10579,8635 10457,8456 10336,8277 10217,8046 10076,7717 9935,7389 9814,7062 9691,6673 9690,6668 9689,6665 9687,6660 L 9687,6660 C 9686,6656 9685,6652 9683,6648 9560,6258 9471,5923 9399,5577 9327,5231 9293,4978 9291,4767 9289,4557 9319,4453 9388,4436 9457,4418 9543,4491 9665,4670 9786,4850 9905,5081 10046,5409 10187,5737 10308,6064 10431,6453 10432,6458 10433,6462 10435,6466 L 10435,6466 Z"/>
         <path fill="rgb(0,0,0)" stroke="none" d="M 7642,3641 C 7674,3743 7680,3835 7661,3936 7641,4037 7602,4116 7536,4189 7470,4262 7397,4306 7302,4331 7207,4355 7119,4353 7020,4323 6922,4293 6843,4245 6767,4168 6691,4092 6642,4010 6610,3908 6577,3805 6571,3712 6591,3611 6610,3510 6649,3431 6715,3358 6781,3285 6854,3241 6949,3216 7044,3191 7133,3194 7231,3224 7330,3254 7409,3302 7485,3379 7558,3453 7606,3532 7639,3631 L 7642,3641 Z"/>
         <path fill="none" stroke="rgb(0,0,0)" stroke-width="44" stroke-linejoin="miter" d="M 7642,3641 L 7642,3641 C 7674,3743 7680,3835 7661,3936 7641,4037 7602,4116 7536,4189 7470,4262 7397,4306 7302,4331 7207,4355 7119,4353 7020,4323 6922,4293 6843,4245 6767,4168 6691,4092 6642,4010 6610,3908 6577,3805 6571,3712 6591,3611 6610,3510 6649,3431 6715,3358 6781,3285 6854,3241 6949,3216 7044,3191 7133,3194 7231,3224 7330,3254 7409,3302 7485,3379 7558,3453 7606,3532 7639,3631"/>
         <path fill="rgb(0,0,0)" stroke="none" d="M 8106,3662 C 8138,3764 8144,3857 8125,3957 8105,4058 8066,4138 8000,4210 7934,4283 7861,4327 7766,4352 7671,4377 7583,4374 7484,4345 7386,4315 7306,4266 7231,4190 7155,4113 7106,4032 7073,3929 7041,3826 7035,3734 7054,3632 7074,3531 7113,3452 7179,3379 7245,3307 7318,3262 7413,3237 7508,3213 7596,3215 7695,3245 7793,3275 7873,3323 7948,3400 8022,3474 8070,3553 8103,3652 L 8106,3662 Z"/>
         <path fill="none" stroke="rgb(0,0,0)" stroke-width="44" stroke-linejoin="miter" d="M 8106,3662 L 8106,3662 C 8138,3764 8144,3857 8125,3957 8105,4058 8066,4138 8000,4210 7934,4283 7861,4327 7766,4352 7671,4377 7583,4374 7484,4345 7386,4315 7306,4266 7231,4190 7155,4113 7106,4032 7073,3929 7041,3826 7035,3734 7054,3632 7074,3531 7113,3452 7179,3379 7245,3307 7318,3262 7413,3237 7508,3213 7596,3215 7695,3245 7793,3275 7873,3323 7948,3400 8022,3474 8070,3553 8103,3652"/>
         <path fill="rgb(0,0,0)" stroke="none" d="M 8694,3864 C 8727,3966 8732,4058 8713,4159 8694,4260 8655,4340 8589,4412 8523,4485 8449,4529 8354,4554 8259,4579 8171,4576 8073,4546 7974,4516 7895,4468 7819,4391 7744,4315 7694,4233 7662,4131 7629,4028 7623,3935 7643,3834 7662,3733 7701,3654 7767,3581 7833,3508 7907,3464 8002,3439 8097,3415 8185,3417 8283,3447 8382,3477 8461,3525 8537,3602 8610,3676 8658,3755 8691,3854 L 8694,3864 Z"/>
         <path fill="none" stroke="rgb(0,0,0)" stroke-width="44" stroke-linejoin="miter" d="M 8694,3864 L 8694,3864 C 8727,3966 8732,4058 8713,4159 8694,4260 8655,4340 8589,4412 8523,4485 8449,4529 8354,4554 8259,4579 8171,4576 8073,4546 7974,4516 7895,4468 7819,4391 7744,4315 7694,4233 7662,4131 7629,4028 7623,3935 7643,3834 7662,3733 7701,3654 7767,3581 7833,3508 7907,3464 8002,3439 8097,3415 8185,3417 8283,3447 8382,3477 8461,3525 8537,3602 8610,3676 8658,3755 8691,3854"/>
         <path fill="rgb(0,0,0)" stroke="none" d="M 8694,3864 C 8727,3966 8732,4058 8713,4159 8694,4260 8655,4340 8589,4412 8523,4485 8449,4529 8354,4554 8259,4579 8171,4576 8073,4546 7974,4516 7895,4468 7819,4391 7744,4315 7694,4233 7662,4131 7629,4028 7623,3935 7643,3834 7662,3733 7701,3654 7767,3581 7833,3508 7907,3464 8002,3439 8097,3415 8185,3417 8283,3447 8382,3477 8461,3525 8537,3602 8610,3676 8658,3755 8691,3854 L 8694,3864 Z"/>
         <path fill="none" stroke="rgb(0,0,0)" stroke-width="44" stroke-linejoin="miter" d="M 8694,3864 L 8694,3864 C 8727,3966 8732,4058 8713,4159 8694,4260 8655,4340 8589,4412 8523,4485 8449,4529 8354,4554 8259,4579 8171,4576 8073,4546 7974,4516 7895,4468 7819,4391 7744,4315 7694,4233 7662,4131 7629,4028 7623,3935 7643,3834 7662,3733 7701,3654 7767,3581 7833,3508 7907,3464 8002,3439 8097,3415 8185,3417 8283,3447 8382,3477 8461,3525 8537,3602 8610,3676 8658,3755 8691,3854"/>
         <path fill="rgb(0,0,0)" stroke="none" d="M 8694,3864 C 8727,3966 8732,4058 8713,4159 8694,4260 8655,4340 8589,4412 8523,4485 8449,4529 8354,4554 8259,4579 8171,4576 8073,4546 7974,4516 7895,4468 7819,4391 7744,4315 7694,4233 7662,4131 7629,4028 7623,3935 7643,3834 7662,3733 7701,3654 7767,3581 7833,3508 7907,3464 8002,3439 8097,3415 8185,3417 8283,3447 8382,3477 8461,3525 8537,3602 8610,3676 8658,3755 8691,3854 L 8694,3864 Z"/>
         <path fill="none" stroke="rgb(0,0,0)" stroke-width="44" stroke-linejoin="miter" d="M 8694,3864 L 8694,3864 C 8727,3966 8732,4058 8713,4159 8694,4260 8655,4340 8589,4412 8523,4485 8449,4529 8354,4554 8259,4579 8171,4576 8073,4546 7974,4516 7895,4468 7819,4391 7744,4315 7694,4233 7662,4131 7629,4028 7623,3935 7643,3834 7662,3733 7701,3654 7767,3581 7833,3508 7907,3464 8002,3439 8097,3415 8185,3417 8283,3447 8382,3477 8461,3525 8537,3602 8610,3676 8658,3755 8691,3854"/>
         <path fill="rgb(0,0,0)" stroke="none" d="M 8162,4268 C 8194,4370 8200,4463 8181,4564 8161,4665 8123,4744 8056,4817 7990,4889 7917,4934 7822,4958 7727,4983 7639,4981 7540,4951 7442,4921 7363,4872 7287,4796 7211,4719 7162,4638 7130,4535 7097,4433 7091,4340 7111,4239 7130,4137 7169,4058 7235,3985 7301,3913 7375,3868 7470,3844 7565,3819 7653,3821 7751,3851 7850,3881 7929,3930 8005,4006 8078,4081 8126,4159 8159,4259 L 8162,4268 Z"/>
         <path fill="none" stroke="rgb(0,0,0)" stroke-width="44" stroke-linejoin="miter" d="M 8162,4268 L 8162,4268 C 8194,4370 8200,4463 8181,4564 8161,4665 8123,4744 8056,4817 7990,4889 7917,4934 7822,4958 7727,4983 7639,4981 7540,4951 7442,4921 7363,4872 7287,4796 7211,4719 7162,4638 7130,4535 7097,4433 7091,4340 7111,4239 7130,4137 7169,4058 7235,3985 7301,3913 7375,3868 7470,3844 7565,3819 7653,3821 7751,3851 7850,3881 7929,3930 8005,4006 8078,4081 8126,4159 8159,4259"/>
         <path fill="rgb(0,0,0)" stroke="none" d="M 7881,4501 C 7913,4603 7918,4696 7899,4796 7880,4898 7841,4977 7775,5050 7709,5122 7635,5167 7540,5191 7445,5216 7357,5214 7259,5184 7160,5154 7081,5105 7005,5029 6930,4952 6880,4871 6848,4768 6815,4665 6810,4573 6829,4471 6848,4370 6887,4291 6953,4218 7019,4146 7093,4101 7188,4077 7283,4052 7371,4054 7469,4084 7568,4114 7647,4163 7723,4239 7796,4313 7845,4392 7877,4492 L 7881,4501 Z"/>
         <path fill="none" stroke="rgb(0,0,0)" stroke-width="44" stroke-linejoin="miter" d="M 7881,4501 L 7881,4501 C 7913,4603 7918,4696 7899,4796 7880,4898 7841,4977 7775,5050 7709,5122 7635,5167 7540,5191 7445,5216 7357,5214 7259,5184 7160,5154 7081,5105 7005,5029 6930,4952 6880,4871 6848,4768 6815,4665 6810,4573 6829,4471 6848,4370 6887,4291 6953,4218 7019,4146 7093,4101 7188,4077 7283,4052 7371,4054 7469,4084 7568,4114 7647,4163 7723,4239 7796,4313 7845,4392 7877,4492"/>
         <path fill="rgb(0,0,0)" stroke="none" d="M 7609,4767 C 7641,4869 7647,4961 7628,5062 7608,5163 7569,5243 7503,5315 7437,5388 7364,5432 7269,5457 7174,5482 7086,5479 6987,5449 6889,5419 6809,5371 6734,5294 6658,5218 6609,5136 6577,5034 6544,4931 6538,4838 6558,4737 6577,4636 6616,4557 6682,4484 6748,4411 6821,4367 6916,4342 7011,4318 7100,4320 7198,4350 7297,4380 7376,4428 7451,4505 7525,4579 7573,4658 7606,4757 L 7609,4767 Z"/>
         <path fill="none" stroke="rgb(0,0,0)" stroke-width="44" stroke-linejoin="miter" d="M 7609,4767 L 7609,4767 C 7641,4869 7647,4961 7628,5062 7608,5163 7569,5243 7503,5315 7437,5388 7364,5432 7269,5457 7174,5482 7086,5479 6987,5449 6889,5419 6809,5371 6734,5294 6658,5218 6609,5136 6577,5034 6544,4931 6538,4838 6558,4737 6577,4636 6616,4557 6682,4484 6748,4411 6821,4367 6916,4342 7011,4318 7100,4320 7198,4350 7297,4380 7376,4428 7451,4505 7525,4579 7573,4658 7606,4757"/>
         <path fill="rgb(0,0,0)" stroke="none" d="M 7240,4189 C 7272,4291 7278,4383 7259,4484 7239,4585 7200,4664 7134,4737 7068,4810 6995,4854 6900,4879 6805,4903 6717,4901 6618,4871 6520,4841 6440,4793 6365,4716 6289,4640 6240,4558 6208,4456 6175,4353 6169,4260 6189,4159 6208,4058 6247,3979 6313,3906 6379,3833 6452,3789 6547,3764 6642,3739 6730,3742 6829,3772 6928,3802 7007,3850 7082,3927 7156,4001 7204,4080 7237,4179 L 7240,4189 Z"/>
         <path fill="none" stroke="rgb(0,0,0)" stroke-width="44" stroke-linejoin="miter" d="M 7240,4189 L 7240,4189 C 7272,4291 7278,4383 7259,4484 7239,4585 7200,4664 7134,4737 7068,4810 6995,4854 6900,4879 6805,4903 6717,4901 6618,4871 6520,4841 6440,4793 6365,4716 6289,4640 6240,4558 6208,4456 6175,4353 6169,4260 6189,4159 6208,4058 6247,3979 6313,3906 6379,3833 6452,3789 6547,3764 6642,3739 6730,3742 6829,3772 6928,3802 7007,3850 7082,3927 7156,4001 7204,4080 7237,4179"/>
         <path fill="rgb(0,0,0)" stroke="none" d="M 7980,3961 C 8012,4063 8018,4155 7999,4256 7980,4357 7941,4436 7875,4509 7809,4582 7735,4626 7640,4651 7545,4676 7457,4673 7359,4643 7260,4613 7181,4565 7105,4488 7029,4412 6980,4330 6948,4228 6915,4125 6909,4032 6929,3931 6948,3830 6987,3751 7053,3678 7119,3605 7193,3561 7288,3536 7383,3512 7471,3514 7569,3544 7668,3574 7747,3622 7823,3699 7896,3773 7944,3852 7977,3951 L 7980,3961 Z"/>
         <path fill="none" stroke="rgb(0,0,0)" stroke-width="44" stroke-linejoin="miter" d="M 7980,3961 L 7980,3961 C 8012,4063 8018,4155 7999,4256 7980,4357 7941,4436 7875,4509 7809,4582 7735,4626 7640,4651 7545,4676 7457,4673 7359,4643 7260,4613 7181,4565 7105,4488 7029,4412 6980,4330 6948,4228 6915,4125 6909,4032 6929,3931 6948,3830 6987,3751 7053,3678 7119,3605 7193,3561 7288,3536 7383,3512 7471,3514 7569,3544 7668,3574 7747,3622 7823,3699 7896,3773 7944,3852 7977,3951"/>
         <path fill="rgb(0,0,0)" stroke="none" d="M 8341,3548 C 8373,3650 8379,3742 8359,3843 8340,3944 8301,4023 8235,4096 8169,4169 8095,4213 8000,4238 7905,4263 7817,4260 7719,4230 7620,4200 7541,4152 7465,4075 7390,3999 7340,3917 7308,3815 7276,3712 7270,3619 7289,3518 7308,3417 7347,3338 7413,3265 7479,3192 7553,3148 7648,3123 7743,3099 7831,3101 7930,3131 8028,3161 8107,3209 8183,3286 8256,3360 8305,3439 8338,3538 L 8341,3548 Z"/>
         <path fill="none" stroke="rgb(0,0,0)" stroke-width="44" stroke-linejoin="miter" d="M 8341,3548 L 8341,3548 C 8373,3650 8379,3742 8359,3843 8340,3944 8301,4023 8235,4096 8169,4169 8095,4213 8000,4238 7905,4263 7817,4260 7719,4230 7620,4200 7541,4152 7465,4075 7390,3999 7340,3917 7308,3815 7276,3712 7270,3619 7289,3518 7308,3417 7347,3338 7413,3265 7479,3192 7553,3148 7648,3123 7743,3099 7831,3101 7930,3131 8028,3161 8107,3209 8183,3286 8256,3360 8305,3439 8338,3538"/>
         <path fill="rgb(0,0,0)" stroke="none" d="M 8524,3216 C 8556,3319 8561,3411 8542,3512 8523,3613 8484,3692 8418,3765 8352,3837 8278,3882 8183,3907 8088,3931 8000,3929 7902,3899 7803,3869 7724,3821 7648,3744 7573,3668 7523,3586 7491,3483 7459,3381 7453,3288 7472,3187 7491,3086 7530,3006 7596,2934 7662,2861 7736,2817 7831,2792 7926,2767 8014,2770 8112,2799 8211,2829 8290,2878 8366,2954 8439,3029 8488,3107 8520,3207 L 8524,3216 Z"/>
         <path fill="none" stroke="rgb(0,0,0)" stroke-width="44" stroke-linejoin="miter" d="M 8524,3216 L 8524,3216 C 8556,3319 8561,3411 8542,3512 8523,3613 8484,3692 8418,3765 8352,3837 8278,3882 8183,3907 8088,3931 8000,3929 7902,3899 7803,3869 7724,3821 7648,3744 7573,3668 7523,3586 7491,3483 7459,3381 7453,3288 7472,3187 7491,3086 7530,3006 7596,2934 7662,2861 7736,2817 7831,2792 7926,2767 8014,2770 8112,2799 8211,2829 8290,2878 8366,2954 8439,3029 8488,3107 8520,3207"/>
         <path fill="rgb(0,0,0)" stroke="none" d="M 8717,3024 C 8749,3126 8755,3219 8735,3320 8716,3421 8677,3500 8611,3573 8545,3645 8471,3690 8376,3714 8281,3739 8193,3737 8095,3707 7996,3677 7917,3628 7841,3552 7766,3475 7717,3394 7684,3291 7652,3189 7646,3096 7665,2995 7685,2893 7723,2814 7790,2742 7856,2669 7929,2624 8024,2600 8119,2575 8207,2577 8306,2607 8404,2637 8483,2686 8559,2762 8632,2837 8681,2915 8714,3015 L 8717,3024 Z"/>
         <path fill="none" stroke="rgb(0,0,0)" stroke-width="44" stroke-linejoin="miter" d="M 8717,3024 L 8717,3024 C 8749,3126 8755,3219 8735,3320 8716,3421 8677,3500 8611,3573 8545,3645 8471,3690 8376,3714 8281,3739 8193,3737 8095,3707 7996,3677 7917,3628 7841,3552 7766,3475 7717,3394 7684,3291 7652,3189 7646,3096 7665,2995 7685,2893 7723,2814 7790,2742 7856,2669 7929,2624 8024,2600 8119,2575 8207,2577 8306,2607 8404,2637 8483,2686 8559,2762 8632,2837 8681,2915 8714,3015"/>
         <path fill="rgb(0,0,0)" stroke="none" d="M 9341,3341 C 9374,3443 9379,3535 9360,3636 9341,3737 9302,3817 9236,3889 9170,3962 9096,4006 9001,4031 8906,4056 8818,4053 8720,4023 8621,3993 8542,3945 8466,3869 8391,3792 8341,3710 8309,3608 8276,3505 8270,3412 8290,3311 8309,3210 8348,3131 8414,3058 8480,2985 8554,2941 8649,2916 8744,2892 8832,2894 8930,2924 9029,2954 9108,3002 9184,3079 9257,3153 9305,3232 9338,3331 L 9341,3341 Z"/>
         <path fill="none" stroke="rgb(0,0,0)" stroke-width="44" stroke-linejoin="miter" d="M 9341,3341 L 9341,3341 C 9374,3443 9379,3535 9360,3636 9341,3737 9302,3817 9236,3889 9170,3962 9096,4006 9001,4031 8906,4056 8818,4053 8720,4023 8621,3993 8542,3945 8466,3869 8391,3792 8341,3710 8309,3608 8276,3505 8270,3412 8290,3311 8309,3210 8348,3131 8414,3058 8480,2985 8554,2941 8649,2916 8744,2892 8832,2894 8930,2924 9029,2954 9108,3002 9184,3079 9257,3153 9305,3232 9338,3331"/>
         <path fill="rgb(0,0,0)" stroke="none" d="M 9753,3411 C 9785,3513 9791,3606 9772,3707 9752,3808 9713,3887 9647,3960 9581,4032 9508,4077 9413,4101 9318,4126 9230,4124 9131,4094 9033,4064 8953,4015 8878,3939 8802,3862 8753,3781 8720,3678 8688,3576 8682,3483 8701,3382 8721,3280 8760,3201 8826,3129 8892,3056 8965,3011 9060,2987 9155,2962 9243,2964 9342,2994 9440,3024 9520,3073 9595,3149 9669,3224 9717,3302 9750,3402 L 9753,3411 Z"/>
         <path fill="none" stroke="rgb(0,0,0)" stroke-width="44" stroke-linejoin="miter" d="M 9753,3411 L 9753,3411 C 9785,3513 9791,3606 9772,3707 9752,3808 9713,3887 9647,3960 9581,4032 9508,4077 9413,4101 9318,4126 9230,4124 9131,4094 9033,4064 8953,4015 8878,3939 8802,3862 8753,3781 8720,3678 8688,3576 8682,3483 8701,3382 8721,3280 8760,3201 8826,3129 8892,3056 8965,3011 9060,2987 9155,2962 9243,2964 9342,2994 9440,3024 9520,3073 9595,3149 9669,3224 9717,3302 9750,3402"/>
         <path fill="rgb(0,0,0)" stroke="none" d="M 9956,3305 C 9988,3407 9994,3500 9975,3601 9956,3702 9917,3781 9851,3854 9785,3926 9711,3971 9616,3995 9521,4020 9433,4018 9334,3988 9236,3958 9157,3909 9081,3833 9005,3756 8956,3675 8924,3572 8891,3470 8885,3377 8905,3276 8924,3174 8963,3095 9029,3022 9095,2950 9169,2905 9264,2881 9359,2856 9447,2858 9545,2888 9644,2918 9723,2967 9799,3043 9872,3118 9920,3196 9953,3296 L 9956,3305 Z"/>
         <path fill="none" stroke="rgb(0,0,0)" stroke-width="44" stroke-linejoin="miter" d="M 9956,3305 L 9956,3305 C 9988,3407 9994,3500 9975,3601 9956,3702 9917,3781 9851,3854 9785,3926 9711,3971 9616,3995 9521,4020 9433,4018 9334,3988 9236,3958 9157,3909 9081,3833 9005,3756 8956,3675 8924,3572 8891,3470 8885,3377 8905,3276 8924,3174 8963,3095 9029,3022 9095,2950 9169,2905 9264,2881 9359,2856 9447,2858 9545,2888 9644,2918 9723,2967 9799,3043 9872,3118 9920,3196 9953,3296"/>
         <path fill="rgb(0,0,0)" stroke="none" d="M 9299,4115 C 9331,4217 9336,4309 9317,4410 9298,4511 9259,4591 9193,4663 9127,4736 9053,4780 8958,4805 8863,4830 8775,4827 8677,4797 8578,4767 8499,4719 8423,4642 8348,4566 8298,4484 8266,4382 8233,4279 8228,4186 8247,4085 8266,3984 8305,3905 8371,3832 8437,3759 8511,3715 8606,3690 8701,3666 8789,3668 8887,3698 8986,3728 9065,3776 9141,3853 9214,3927 9263,4006 9295,4105 L 9299,4115 Z"/>
         <path fill="none" stroke="rgb(0,0,0)" stroke-width="44" stroke-linejoin="miter" d="M 9299,4115 L 9299,4115 C 9331,4217 9336,4309 9317,4410 9298,4511 9259,4591 9193,4663 9127,4736 9053,4780 8958,4805 8863,4830 8775,4827 8677,4797 8578,4767 8499,4719 8423,4642 8348,4566 8298,4484 8266,4382 8233,4279 8228,4186 8247,4085 8266,3984 8305,3905 8371,3832 8437,3759 8511,3715 8606,3690 8701,3666 8789,3668 8887,3698 8986,3728 9065,3776 9141,3853 9214,3927 9263,4006 9295,4105"/>
         <path fill="rgb(0,0,0)" stroke="none" d="M 9236,4237 C 9268,4340 9274,4432 9254,4533 9235,4634 9196,4713 9130,4786 9064,4859 8991,4903 8896,4928 8801,4952 8712,4950 8614,4920 8515,4890 8436,4842 8361,4765 8285,4689 8236,4607 8203,4505 8171,4402 8165,4309 8184,4208 8204,4107 8243,4027 8309,3955 8375,3882 8448,3838 8543,3813 8638,3788 8726,3791 8825,3821 8923,3851 9003,3899 9078,3976 9152,4050 9200,4129 9233,4228 L 9236,4237 Z"/>
         <path fill="none" stroke="rgb(0,0,0)" stroke-width="44" stroke-linejoin="miter" d="M 9236,4237 L 9236,4237 C 9268,4340 9274,4432 9254,4533 9235,4634 9196,4713 9130,4786 9064,4859 8991,4903 8896,4928 8801,4952 8712,4950 8614,4920 8515,4890 8436,4842 8361,4765 8285,4689 8236,4607 8203,4505 8171,4402 8165,4309 8184,4208 8204,4107 8243,4027 8309,3955 8375,3882 8448,3838 8543,3813 8638,3788 8726,3791 8825,3821 8923,3851 9003,3899 9078,3976 9152,4050 9200,4129 9233,4228"/>
         <path fill="rgb(0,0,0)" stroke="none" d="M 8724,4707 C 8756,4810 8762,4902 8743,5003 8724,5104 8685,5183 8619,5256 8553,5329 8479,5373 8384,5398 8289,5422 8201,5420 8102,5390 8004,5360 7925,5312 7849,5235 7773,5159 7724,5077 7692,4975 7659,4872 7653,4779 7673,4678 7692,4577 7731,4497 7797,4425 7863,4352 7937,4308 8032,4283 8127,4258 8215,4261 8313,4291 8412,4321 8491,4369 8567,4446 8640,4520 8688,4599 8721,4698 L 8724,4707 Z"/>
         <path fill="none" stroke="rgb(0,0,0)" stroke-width="44" stroke-linejoin="miter" d="M 8724,4707 L 8724,4707 C 8756,4810 8762,4902 8743,5003 8724,5104 8685,5183 8619,5256 8553,5329 8479,5373 8384,5398 8289,5422 8201,5420 8102,5390 8004,5360 7925,5312 7849,5235 7773,5159 7724,5077 7692,4975 7659,4872 7653,4779 7673,4678 7692,4577 7731,4497 7797,4425 7863,4352 7937,4308 8032,4283 8127,4258 8215,4261 8313,4291 8412,4321 8491,4369 8567,4446 8640,4520 8688,4599 8721,4698"/>
         <path fill="rgb(0,0,0)" stroke="none" d="M 8422,4928 C 8454,5030 8460,5123 8440,5223 8421,5325 8382,5404 8316,5477 8250,5549 8177,5594 8082,5618 7987,5643 7898,5641 7800,5611 7701,5581 7622,5532 7546,5456 7471,5379 7422,5298 7389,5195 7357,5092 7351,5000 7370,4898 7390,4797 7429,4718 7495,4645 7561,4573 7634,4528 7729,4504 7824,4479 7912,4481 8011,4511 8109,4541 8188,4590 8264,4666 8338,4740 8386,4819 8419,4919 L 8422,4928 Z"/>
         <path fill="none" stroke="rgb(0,0,0)" stroke-width="44" stroke-linejoin="miter" d="M 8422,4928 L 8422,4928 C 8454,5030 8460,5123 8440,5223 8421,5325 8382,5404 8316,5477 8250,5549 8177,5594 8082,5618 7987,5643 7898,5641 7800,5611 7701,5581 7622,5532 7546,5456 7471,5379 7422,5298 7389,5195 7357,5092 7351,5000 7370,4898 7390,4797 7429,4718 7495,4645 7561,4573 7634,4528 7729,4504 7824,4479 7912,4481 8011,4511 8109,4541 8188,4590 8264,4666 8338,4740 8386,4819 8419,4919"/>
         <path fill="rgb(0,0,0)" stroke="none" d="M 8146,4964 C 8178,5067 8183,5159 8164,5260 8145,5361 8106,5440 8040,5513 7974,5586 7900,5630 7805,5655 7710,5679 7622,5677 7524,5647 7425,5617 7346,5569 7270,5492 7195,5416 7145,5334 7113,5231 7080,5129 7075,5036 7094,4935 7113,4834 7152,4754 7218,4682 7284,4609 7358,4565 7453,4540 7548,4515 7636,4518 7734,4548 7833,4577 7912,4626 7988,4702 8061,4777 8110,4856 8142,4955 L 8146,4964 Z"/>
         <path fill="none" stroke="rgb(0,0,0)" stroke-width="44" stroke-linejoin="miter" d="M 8146,4964 L 8146,4964 C 8178,5067 8183,5159 8164,5260 8145,5361 8106,5440 8040,5513 7974,5586 7900,5630 7805,5655 7710,5679 7622,5677 7524,5647 7425,5617 7346,5569 7270,5492 7195,5416 7145,5334 7113,5231 7080,5129 7075,5036 7094,4935 7113,4834 7152,4754 7218,4682 7284,4609 7358,4565 7453,4540 7548,4515 7636,4518 7734,4548 7833,4577 7912,4626 7988,4702 8061,4777 8110,4856 8142,4955"/>
         <path fill="rgb(244,227,130)" stroke="none" d="M 7586,6986 C 7646,7216 7692,7413 7732,7616 7773,7822 7796,7971 7806,8093 7816,8216 7809,8274 7785,8280 7761,8286 7726,8238 7674,8126 7623,8014 7569,7872 7504,7672 7439,7472 7381,7274 7320,7040 7259,6806 7212,6605 7171,6399 7130,6194 7107,6044 7097,5922 7087,5799 7094,5741 7118,5735 7142,5729 7177,5777 7229,5889 7280,6001 7333,6143 7399,6343 7463,6540 7520,6734 7580,6964 L 7586,6986 Z"/>
         <path fill="rgb(255,255,255)" stroke="none" d="M 7621,3708 C 7653,3810 7659,3903 7640,4003 7620,4105 7582,4184 7515,4257 7449,4329 7376,4374 7281,4398 7186,4423 7098,4421 6999,4391 6901,4361 6822,4312 6746,4236 6670,4159 6621,4078 6589,3975 6556,3872 6550,3780 6570,3678 6589,3577 6628,3498 6694,3425 6760,3353 6833,3308 6928,3284 7024,3259 7112,3261 7210,3291 7309,3321 7388,3370 7464,3446 7537,3520 7585,3599 7618,3699 L 7621,3708 Z"/>
         <path fill="rgb(255,255,255)" stroke="none" d="M 8085,3729 C 8117,3832 8123,3924 8104,4025 8084,4126 8045,4205 7979,4278 7913,4351 7840,4395 7745,4420 7650,4444 7562,4442 7463,4412 7365,4382 7285,4334 7210,4257 7134,4181 7085,4099 7052,3996 7020,3894 7014,3801 7033,3700 7053,3599 7092,3519 7158,3447 7224,3374 7297,3330 7392,3305 7487,3280 7575,3283 7674,3313 7772,3343 7852,3391 7927,3467 8001,3542 8049,3621 8082,3720 L 8085,3729 Z"/>
         <path fill="rgb(255,255,255)" stroke="none" d="M 8673,3931 C 8706,4033 8711,4126 8692,4227 8673,4328 8634,4407 8568,4480 8502,4552 8428,4597 8333,4621 8238,4646 8150,4644 8052,4614 7953,4584 7874,4535 7798,4459 7723,4382 7673,4301 7641,4198 7608,4096 7603,4003 7622,3902 7641,3800 7680,3721 7746,3649 7812,3576 7886,3532 7981,3507 8076,3482 8164,3485 8262,3514 8361,3544 8440,3593 8516,3669 8589,3744 8638,3822 8670,3922 L 8673,3931 Z"/>
         <path fill="rgb(255,255,255)" stroke="none" d="M 8673,3931 C 8706,4033 8711,4126 8692,4227 8673,4328 8634,4407 8568,4480 8502,4552 8428,4597 8333,4621 8238,4646 8150,4644 8052,4614 7953,4584 7874,4535 7798,4459 7723,4382 7673,4301 7641,4198 7608,4096 7603,4003 7622,3902 7641,3800 7680,3721 7746,3649 7812,3576 7886,3532 7981,3507 8076,3482 8164,3485 8262,3514 8361,3544 8440,3593 8516,3669 8589,3744 8638,3822 8670,3922 L 8673,3931 Z"/>
         <path fill="rgb(255,255,255)" stroke="none" d="M 8673,3931 C 8706,4033 8711,4126 8692,4227 8673,4328 8634,4407 8568,4480 8502,4552 8428,4597 8333,4621 8238,4646 8150,4644 8052,4614 7953,4584 7874,4535 7798,4459 7723,4382 7673,4301 7641,4198 7608,4096 7603,4003 7622,3902 7641,3800 7680,3721 7746,3649 7812,3576 7886,3532 7981,3507 8076,3482 8164,3485 8262,3514 8361,3544 8440,3593 8516,3669 8589,3744 8638,3822 8670,3922 L 8673,3931 Z"/>
         <path fill="rgb(255,255,255)" stroke="none" d="M 8141,4336 C 8173,4438 8179,4530 8160,4631 8140,4732 8102,4811 8036,4884 7969,4957 7896,5001 7801,5026 7706,5051 7618,5048 7519,5018 7421,4988 7342,4940 7266,4863 7190,4787 7141,4705 7109,4603 7076,4500 7070,4407 7090,4306 7109,4205 7148,4126 7214,4053 7280,3980 7354,3936 7449,3911 7544,3887 7632,3889 7730,3919 7829,3949 7908,3997 7984,4074 8057,4148 8105,4227 8138,4326 L 8141,4336 Z"/>
         <path fill="rgb(255,255,255)" stroke="none" d="M 7860,4569 C 7892,4671 7897,4763 7878,4864 7859,4965 7820,5044 7754,5117 7688,5190 7614,5234 7519,5259 7424,5284 7336,5281 7238,5251 7139,5221 7060,5173 6984,5096 6909,5020 6859,4938 6827,4836 6795,4733 6789,4640 6808,4539 6827,4438 6866,4359 6932,4286 6998,4213 7072,4169 7167,4144 7262,4119 7350,4122 7448,4152 7547,4182 7626,4230 7702,4307 7775,4381 7824,4460 7856,4559 L 7860,4569 Z"/>
         <path fill="rgb(255,255,255)" stroke="none" d="M 7588,4834 C 7620,4936 7626,5029 7607,5130 7587,5231 7548,5310 7482,5383 7416,5455 7343,5500 7248,5524 7153,5549 7065,5547 6966,5517 6868,5487 6788,5438 6713,5362 6637,5285 6588,5204 6556,5101 6523,4999 6517,4906 6537,4805 6556,4703 6595,4624 6661,4552 6727,4479 6800,4435 6895,4410 6990,4385 7079,4387 7177,4417 7276,4447 7355,4496 7430,4572 7504,4647 7552,4725 7585,4825 L 7588,4834 Z"/>
         <path fill="rgb(255,255,255)" stroke="none" d="M 7219,4256 C 7251,4358 7257,4451 7238,4551 7218,4653 7179,4732 7113,4805 7047,4877 6974,4922 6879,4946 6784,4971 6696,4969 6597,4939 6499,4909 6419,4860 6344,4784 6268,4707 6219,4626 6187,4523 6154,4420 6148,4328 6168,4226 6187,4125 6226,4046 6292,3973 6358,3901 6431,3856 6526,3832 6621,3807 6710,3809 6808,3839 6907,3869 6986,3918 7061,3994 7135,4068 7183,4147 7216,4247 L 7219,4256 Z"/>
         <path fill="rgb(255,255,255)" stroke="none" d="M 7959,4028 C 7992,4130 7997,4223 7978,4324 7959,4425 7920,4504 7854,4577 7788,4649 7714,4694 7619,4718 7524,4743 7436,4741 7338,4711 7239,4681 7160,4632 7084,4556 7009,4479 6959,4398 6927,4295 6894,4193 6888,4100 6908,3999 6927,3897 6966,3818 7032,3745 7098,3673 7172,3628 7267,3604 7362,3579 7450,3581 7548,3611 7647,3641 7726,3690 7802,3766 7875,3841 7923,3919 7956,4019 L 7959,4028 Z"/>
         <path fill="rgb(255,255,255)" stroke="none" d="M 8320,3615 C 8352,3717 8358,3810 8338,3911 8319,4012 8280,4091 8214,4164 8148,4236 8074,4281 7979,4305 7884,4330 7796,4328 7698,4298 7599,4268 7520,4219 7444,4143 7369,4066 7320,3985 7287,3882 7255,3780 7249,3687 7268,3586 7287,3484 7326,3405 7392,3333 7459,3260 7532,3215 7627,3191 7722,3166 7810,3168 7909,3198 8007,3228 8086,3277 8162,3353 8235,3428 8284,3506 8317,3606 L 8320,3615 Z"/>
         <path fill="rgb(255,255,255)" stroke="none" d="M 8503,3284 C 8535,3386 8540,3478 8521,3579 8502,3680 8463,3760 8397,3832 8331,3905 8257,3949 8162,3974 8067,3999 7979,3996 7881,3966 7782,3937 7703,3888 7627,3812 7552,3735 7502,3653 7470,3551 7438,3448 7432,3355 7451,3254 7470,3153 7509,3074 7575,3001 7641,2928 7715,2884 7810,2859 7905,2835 7993,2837 8091,2867 8190,2897 8269,2945 8345,3022 8418,3096 8467,3175 8500,3274 L 8503,3284 Z"/>
         <path fill="rgb(255,255,255)" stroke="none" d="M 8696,3092 C 8728,3194 8734,3286 8714,3387 8695,3488 8656,3568 8590,3640 8524,3713 8451,3757 8355,3782 8260,3807 8172,3804 8074,3774 7975,3744 7896,3696 7820,3619 7745,3543 7696,3461 7663,3359 7631,3256 7625,3163 7644,3062 7664,2961 7702,2882 7769,2809 7835,2736 7908,2692 8003,2667 8098,2643 8186,2645 8285,2675 8383,2705 8462,2753 8538,2830 8612,2904 8660,2983 8693,3082 L 8696,3092 Z"/>
         <path fill="rgb(255,255,255)" stroke="none" d="M 9320,3408 C 9353,3511 9358,3603 9339,3704 9320,3805 9281,3884 9215,3957 9149,4029 9075,4074 8980,4099 8885,4123 8797,4121 8699,4091 8600,4061 8521,4013 8445,3936 8370,3860 8320,3778 8288,3675 8255,3573 8249,3480 8269,3379 8288,3277 8327,3198 8393,3126 8459,3053 8533,3009 8628,2984 8723,2959 8811,2962 8909,2991 9008,3021 9087,3070 9163,3146 9236,3221 9285,3299 9317,3399 L 9320,3408 Z"/>
         <path fill="rgb(255,255,255)" stroke="none" d="M 9732,3479 C 9764,3581 9770,3673 9751,3774 9731,3875 9692,3955 9626,4027 9560,4100 9487,4144 9392,4169 9297,4194 9209,4191 9110,4161 9012,4131 8932,4083 8857,4006 8781,3930 8732,3848 8699,3746 8667,3643 8661,3550 8680,3449 8700,3348 8739,3269 8805,3196 8871,3123 8944,3079 9039,3054 9134,3030 9222,3032 9321,3062 9419,3092 9499,3140 9574,3217 9648,3291 9696,3370 9729,3469 L 9732,3479 Z"/>
         <path fill="rgb(255,255,255)" stroke="none" d="M 9935,3373 C 9968,3475 9973,3567 9954,3668 9935,3769 9896,3848 9830,3921 9764,3994 9690,4038 9595,4063 9500,4088 9412,4085 9314,4055 9215,4025 9136,3977 9060,3900 8984,3824 8935,3742 8903,3640 8870,3537 8864,3444 8884,3343 8903,3242 8942,3163 9008,3090 9074,3017 9148,2973 9243,2948 9338,2924 9426,2926 9524,2956 9623,2986 9702,3034 9778,3111 9851,3185 9899,3264 9932,3363 L 9935,3373 Z"/>
         <path fill="rgb(255,255,255)" stroke="none" d="M 9278,4182 C 9310,4284 9315,4377 9296,4478 9277,4579 9238,4658 9172,4731 9106,4803 9032,4848 8937,4872 8842,4897 8754,4895 8656,4865 8557,4835 8478,4786 8402,4710 8327,4633 8277,4552 8245,4449 8213,4347 8207,4254 8226,4153 8245,4051 8284,3972 8350,3900 8416,3827 8490,3782 8585,3758 8680,3733 8768,3735 8866,3765 8965,3795 9044,3844 9120,3920 9193,3995 9242,4073 9274,4173 L 9278,4182 Z"/>
         <path fill="rgb(255,255,255)" stroke="none" d="M 9215,4305 C 9247,4407 9253,4500 9233,4600 9214,4702 9175,4781 9109,4854 9043,4926 8970,4971 8875,4995 8780,5020 8691,5018 8593,4988 8494,4958 8415,4909 8340,4833 8264,4756 8215,4675 8182,4572 8150,4469 8144,4377 8163,4275 8183,4174 8222,4095 8288,4022 8354,3950 8427,3905 8522,3881 8617,3856 8705,3858 8804,3888 8902,3918 8982,3967 9057,4043 9131,4117 9179,4196 9212,4296 L 9215,4305 Z"/>
         <path fill="rgb(255,255,255)" stroke="none" d="M 8703,4775 C 8735,4877 8741,4970 8722,5070 8703,5172 8664,5251 8598,5323 8532,5396 8458,5441 8363,5465 8268,5490 8180,5488 8082,5458 7983,5428 7904,5379 7828,5303 7752,5226 7703,5145 7671,5042 7638,4939 7632,4847 7652,4745 7671,4644 7710,4565 7776,4492 7842,4420 7916,4375 8011,4351 8106,4326 8194,4328 8292,4358 8391,4388 8470,4437 8546,4513 8619,4587 8667,4666 8700,4765 L 8703,4775 Z"/>
         <path fill="rgb(255,255,255)" stroke="none" d="M 8401,4996 C 8433,5098 8439,5190 8419,5291 8400,5392 8361,5471 8295,5544 8229,5617 8156,5661 8061,5686 7966,5710 7877,5708 7779,5678 7680,5648 7601,5600 7525,5523 7450,5447 7401,5365 7368,5263 7336,5160 7330,5067 7349,4966 7369,4865 7408,4786 7474,4713 7540,4640 7613,4596 7708,4571 7803,4546 7891,4549 7990,4579 8088,4609 8168,4657 8243,4734 8317,4808 8365,4887 8398,4986 L 8401,4996 Z"/>
         <path fill="rgb(255,255,255)" stroke="none" d="M 8125,5032 C 8157,5134 8162,5226 8143,5327 8124,5428 8085,5508 8019,5580 7953,5653 7879,5697 7784,5722 7689,5747 7601,5744 7503,5714 7404,5685 7325,5636 7249,5560 7174,5483 7124,5402 7092,5299 7060,5196 7054,5103 7073,5002 7092,4901 7131,4822 7197,4749 7263,4676 7337,4632 7432,4607 7527,4583 7615,4585 7713,4615 7812,4645 7891,4693 7967,4770 8040,4844 8089,4923 8121,5022 L 8125,5032 Z"/>
         <path fill="rgb(244,227,130)" stroke="none" d="M 8906,7037 C 8977,7265 9032,7460 9082,7661 9132,7865 9162,8013 9178,8135 9193,8257 9190,8316 9166,8323 9142,8330 9105,8283 9048,8173 8991,8063 8931,7923 8857,7726 8782,7529 8715,7333 8643,7102 8571,6870 8515,6671 8464,6467 8413,6263 8383,6115 8368,5993 8352,5871 8356,5813 8380,5806 8404,5799 8441,5846 8498,5955 8554,6065 8614,6205 8689,6402 8762,6596 8828,6788 8899,7016 L 8906,7037 Z"/>
         <path fill="rgb(244,227,130)" stroke="none" d="M 10012,6679 C 10083,6907 10138,7102 10188,7303 10239,7507 10269,7655 10284,7777 10300,7899 10296,7958 10272,7965 10248,7971 10211,7925 10154,7815 10097,7705 10038,7565 9963,7368 9888,7171 9821,6975 9749,6744 9677,6512 9621,6313 9570,6109 9519,5905 9489,5757 9474,5635 9458,5513 9462,5454 9486,5448 9510,5441 9547,5488 9604,5597 9661,5707 9721,5847 9795,6044 9869,6238 9934,6430 10006,6658 L 10012,6679 Z"/>
         <path fill="rgb(0,0,0)" stroke="none" d="M 7961,3785 C 7982,3864 7979,3937 7952,4015 7925,4094 7882,4157 7814,4214 7745,4271 7673,4307 7581,4327 7490,4347 7408,4346 7318,4324 7228,4302 7158,4265 7094,4206 7029,4148 6990,4085 6969,4005 6947,3926 6950,3854 6977,3775 7004,3696 7047,3634 7116,3576 7184,3519 7257,3484 7348,3463 7439,3443 7522,3444 7611,3466 7701,3488 7771,3525 7836,3584 7898,3640 7936,3701 7958,3778 L 7961,3785 Z"/>
         <path fill="none" stroke="rgb(0,0,0)" stroke-width="21" stroke-linejoin="miter" d="M 7961,3785 L 7961,3785 C 7982,3864 7979,3937 7952,4015 7925,4094 7882,4157 7814,4214 7745,4271 7673,4307 7581,4327 7490,4347 7408,4346 7318,4324 7228,4302 7158,4265 7094,4206 7029,4148 6990,4085 6969,4005 6947,3926 6950,3854 6977,3775 7004,3696 7047,3634 7116,3576 7184,3519 7257,3484 7348,3463 7439,3443 7522,3444 7611,3466 7701,3488 7771,3525 7836,3584 7898,3640 7936,3701 7958,3778"/>
         <path fill="rgb(255,255,255)" stroke="none" d="M 7991,3824 C 8013,3903 8010,3975 7983,4054 7956,4133 7913,4195 7844,4253 7776,4310 7704,4346 7612,4366 7521,4386 7438,4385 7349,4363 7259,4341 7189,4304 7124,4245 7060,4187 7021,4124 7000,4044 6978,3965 6981,3893 7008,3814 7035,3735 7078,3672 7146,3615 7215,3558 7287,3522 7379,3502 7470,3482 7552,3483 7642,3505 7732,3527 7802,3564 7866,3623 7929,3679 7967,3740 7989,3817 L 7991,3824 Z"/>
         <path fill="rgb(0,0,0)" stroke="none" d="M 7843,4995 C 7865,5075 7862,5147 7835,5226 7808,5305 7765,5367 7696,5424 7628,5482 7555,5517 7464,5537 7373,5558 7290,5557 7201,5535 7111,5512 7041,5476 6976,5417 6912,5358 6873,5295 6852,5216 6830,5136 6833,5064 6860,4985 6887,4906 6930,4844 6998,4787 7067,4729 7139,4694 7231,4674 7322,4653 7404,4654 7494,4676 7584,4699 7654,4735 7718,4794 7781,4851 7819,4911 7841,4988 L 7843,4995 Z"/>
         <path fill="none" stroke="rgb(0,0,0)" stroke-width="21" stroke-linejoin="miter" d="M 7843,4995 L 7843,4995 C 7865,5075 7862,5147 7835,5226 7808,5305 7765,5367 7696,5424 7628,5482 7555,5517 7464,5537 7373,5558 7290,5557 7201,5535 7111,5512 7041,5476 6976,5417 6912,5358 6873,5295 6852,5216 6830,5136 6833,5064 6860,4985 6887,4906 6930,4844 6998,4787 7067,4729 7139,4694 7231,4674 7322,4653 7404,4654 7494,4676 7584,4699 7654,4735 7718,4794 7781,4851 7819,4911 7841,4988"/>
         <path fill="rgb(255,255,255)" stroke="none" d="M 7874,5034 C 7895,5114 7893,5186 7866,5265 7839,5344 7795,5406 7727,5463 7659,5521 7586,5556 7495,5576 7404,5597 7321,5596 7231,5574 7142,5551 7071,5515 7007,5456 6943,5397 6904,5334 6882,5255 6861,5175 6863,5103 6890,5024 6917,4945 6961,4883 7029,4826 7097,4768 7170,4733 7261,4713 7353,4692 7435,4693 7525,4715 7615,4738 7685,4774 7749,4833 7811,4890 7850,4950 7872,5027 L 7874,5034 Z"/>
         <path fill="rgb(0,0,0)" stroke="none" d="M 8221,4399 C 8243,4479 8240,4551 8213,4630 8186,4709 8143,4771 8074,4828 8006,4885 7933,4921 7842,4941 7751,4961 7668,4961 7579,4938 7489,4916 7419,4879 7354,4821 7290,4762 7251,4699 7229,4620 7208,4540 7210,4468 7237,4389 7265,4310 7308,4248 7376,4190 7445,4133 7517,4098 7608,4077 7700,4057 7782,4058 7872,4080 7962,4102 8032,4139 8096,4198 8159,4255 8197,4315 8219,4392 L 8221,4399 Z"/>
         <path fill="none" stroke="rgb(0,0,0)" stroke-width="21" stroke-linejoin="miter" d="M 8221,4399 L 8221,4399 C 8243,4479 8240,4551 8213,4630 8186,4709 8143,4771 8074,4828 8006,4885 7933,4921 7842,4941 7751,4961 7668,4961 7579,4938 7489,4916 7419,4879 7354,4821 7290,4762 7251,4699 7229,4620 7208,4540 7210,4468 7237,4389 7265,4310 7308,4248 7376,4190 7445,4133 7517,4098 7608,4077 7700,4057 7782,4058 7872,4080 7962,4102 8032,4139 8096,4198 8159,4255 8197,4315 8219,4392"/>
         <path fill="rgb(255,255,255)" stroke="none" d="M 8252,4438 C 8273,4518 8271,4590 8244,4669 8217,4748 8173,4810 8105,4867 8037,4924 7964,4960 7873,4980 7782,5000 7699,4999 7609,4977 7520,4955 7449,4918 7385,4860 7321,4801 7282,4738 7260,4658 7239,4579 7241,4507 7268,4428 7295,4349 7339,4287 7407,4229 7475,4172 7548,4137 7639,4116 7730,4096 7813,4097 7903,4119 7993,4141 8063,4178 8127,4237 8189,4294 8228,4354 8250,4431 L 8252,4438 Z"/>
         <path fill="rgb(0,0,0)" stroke="none" d="M 8779,3924 C 8800,4003 8798,4075 8771,4154 8744,4233 8700,4295 8632,4353 8564,4410 8491,4445 8400,4466 8309,4486 8226,4485 8136,4463 8047,4441 7976,4404 7912,4345 7848,4287 7809,4224 7787,4144 7766,4065 7768,3992 7795,3913 7822,3834 7866,3772 7934,3715 8002,3658 8075,3622 8166,3602 8258,3582 8340,3583 8430,3605 8520,3627 8590,3664 8654,3722 8716,3779 8755,3840 8777,3916 L 8779,3924 Z"/>
         <path fill="none" stroke="rgb(0,0,0)" stroke-width="21" stroke-linejoin="miter" d="M 8779,3924 L 8779,3924 C 8800,4003 8798,4075 8771,4154 8744,4233 8700,4295 8632,4353 8564,4410 8491,4445 8400,4466 8309,4486 8226,4485 8136,4463 8047,4441 7976,4404 7912,4345 7848,4287 7809,4224 7787,4144 7766,4065 7768,3992 7795,3913 7822,3834 7866,3772 7934,3715 8002,3658 8075,3622 8166,3602 8258,3582 8340,3583 8430,3605 8520,3627 8590,3664 8654,3722 8716,3779 8755,3840 8777,3916"/>
         <path fill="rgb(255,255,255)" stroke="none" d="M 8810,3963 C 8831,4042 8829,4114 8802,4193 8775,4272 8731,4334 8663,4392 8595,4449 8522,4484 8431,4505 8339,4525 8257,4524 8167,4502 8077,4480 8007,4443 7943,4384 7879,4325 7840,4263 7818,4183 7797,4104 7799,4031 7826,3952 7853,3873 7896,3811 7965,3754 8033,3697 8106,3661 8197,3641 8288,3621 8371,3621 8461,3644 8550,3666 8621,3703 8685,3761 8747,3818 8785,3879 8808,3955 L 8810,3963 Z"/>
         <path fill="rgb(0,0,0)" stroke="none" d="M 8097,5287 C 8116,5356 8114,5418 8090,5486 8067,5554 8029,5608 7970,5658 7911,5707 7849,5738 7770,5755 7691,5773 7619,5772 7542,5753 7464,5734 7403,5702 7348,5651 7292,5600 7259,5546 7240,5477 7221,5409 7224,5346 7247,5278 7270,5210 7308,5156 7367,5106 7426,5057 7489,5026 7568,5009 7647,4991 7718,4992 7795,5011 7873,5030 7934,5062 7989,5113 8043,5162 8076,5214 8096,5281 L 8097,5287 Z"/>
         <path fill="none" stroke="rgb(0,0,0)" stroke-width="18" stroke-linejoin="miter" d="M 8097,5287 L 8097,5287 C 8116,5356 8114,5418 8090,5486 8067,5554 8029,5608 7970,5658 7911,5707 7849,5738 7770,5755 7691,5773 7619,5772 7542,5753 7464,5734 7403,5702 7348,5651 7292,5600 7259,5546 7240,5477 7221,5409 7224,5346 7247,5278 7270,5210 7308,5156 7367,5106 7426,5057 7489,5026 7568,5009 7647,4991 7718,4992 7795,5011 7873,5030 7934,5062 7989,5113 8043,5162 8076,5214 8096,5281"/>
         <path fill="rgb(255,255,255)" stroke="none" d="M 8124,5321 C 8142,5389 8140,5452 8117,5520 8094,5588 8056,5642 7997,5691 7938,5741 7875,5771 7796,5789 7717,5807 7646,5806 7568,5787 7491,5767 7430,5736 7375,5685 7319,5634 7285,5580 7267,5511 7248,5442 7250,5380 7273,5312 7297,5243 7334,5190 7393,5140 7452,5090 7515,5060 7594,5042 7673,5025 7744,5026 7822,5045 7900,5064 7960,5096 8016,5146 8070,5196 8103,5248 8122,5314 L 8124,5321 Z"/>
         <path fill="rgb(0,0,0)" stroke="none" d="M 8781,4652 C 8797,4713 8796,4768 8775,4829 8754,4889 8721,4937 8669,4981 8617,5024 8561,5051 8491,5067 8421,5083 8358,5082 8289,5065 8221,5048 8167,5020 8118,4975 8069,4930 8039,4882 8022,4821 8006,4760 8008,4705 8028,4644 8049,4584 8082,4536 8135,4493 8187,4449 8242,4422 8312,4406 8382,4391 8445,4391 8514,4408 8583,4425 8636,4453 8686,4498 8733,4542 8762,4588 8779,4647 L 8781,4652 Z"/>
         <path fill="none" stroke="rgb(0,0,0)" stroke-width="16" stroke-linejoin="miter" d="M 8781,4652 L 8781,4652 C 8797,4713 8796,4768 8775,4829 8754,4889 8721,4937 8669,4981 8617,5024 8561,5051 8491,5067 8421,5083 8358,5082 8289,5065 8221,5048 8167,5020 8118,4975 8069,4930 8039,4882 8022,4821 8006,4760 8008,4705 8028,4644 8049,4584 8082,4536 8135,4493 8187,4449 8242,4422 8312,4406 8382,4391 8445,4391 8514,4408 8583,4425 8636,4453 8686,4498 8733,4542 8762,4588 8779,4647"/>
         <path fill="rgb(255,255,255)" stroke="none" d="M 8805,4682 C 8821,4743 8819,4798 8798,4859 8778,4919 8745,4966 8692,5010 8640,5054 8584,5081 8515,5097 8445,5112 8382,5112 8313,5095 8244,5078 8191,5050 8141,5005 8092,4960 8062,4912 8046,4851 8029,4790 8031,4735 8052,4674 8073,4614 8106,4566 8158,4522 8210,4479 8266,4452 8336,4436 8406,4420 8469,4421 8537,4438 8606,4455 8660,4483 8709,4528 8757,4572 8786,4618 8803,4677 L 8805,4682 Z"/>
         <path fill="rgb(200,201,148)" stroke="none" d="M 10900,5073 C 10266,4407 10477,4426 11042,4983 11540,5473 11530,6648 11386,6919 11296,7089 10766,7582 11190,6812 11479,6288 11447,5649 10900,5073 L 10900,5073 Z"/>
        </g>
       </g>
       <g class="Graphic">
        <g id="id5">
         <rect class="BoundingBox" stroke="none" fill="none" x="225" y="1905" width="6852" height="7874"/>
         <path fill="rgb(255,255,213)" stroke="none" d="M 3696,4548 C 4197,4730 3974,5215 3559,5342 3144,5469 2497,4677 2037,5056 1577,5436 1418,6372 1720,6861 2022,7351 2942,6724 3245,7016 3548,7307 3428,7865 2932,8027 2437,8190 1606,8519 1262,7666 918,6813 948,5395 1557,4616 2165,3836 3195,4367 3696,4548 L 3696,4548 Z"/>
         <path fill="none" stroke="rgb(0,0,0)" stroke-width="76" stroke-linejoin="miter" d="M 3696,4548 C 4197,4730 3974,5215 3559,5342 3144,5469 2497,4677 2037,5056 1577,5436 1418,6372 1720,6861 2022,7351 2942,6724 3245,7016 3548,7307 3428,7865 2932,8027 2437,8190 1606,8519 1262,7666 918,6813 948,5395 1557,4616 2165,3836 3195,4367 3696,4548 L 3696,4548 Z"/>
         <path fill="rgb(244,202,51)" stroke="none" d="M 6446,4557 C 5174,4367 3701,4206 2885,3706 2522,5088 1982,7160 1420,8621 1313,9006 5212,9766 5280,9195 5447,8116 5857,6271 6446,4557 L 6446,4557 Z"/>
         <path fill="none" stroke="rgb(0,0,0)" stroke-width="94" stroke-linejoin="miter" d="M 6446,4557 C 5174,4367 3701,4206 2885,3706 2522,5088 1982,7160 1420,8621 1313,9006 5212,9766 5280,9195 5447,8116 5857,6271 6446,4557 L 6446,4557 Z"/>
         <path fill="rgb(244,177,51)" stroke="none" d="M 4743,6839 C 4636,7231 4561,7568 4504,7916 4446,8263 4422,8517 4429,8726 4435,8936 4469,9039 4538,9054 4607,9070 4690,8994 4804,8811 4917,8628 5026,8394 5153,8062 5280,7730 5386,7400 5493,7008 5494,7003 5495,7000 5497,6995 5498,6991 5499,6987 5500,6982 5607,6590 5682,6253 5740,5906 5798,5558 5821,5305 5815,5095 5808,4885 5774,4783 5705,4767 5636,4752 5553,4828 5440,5010 5327,5193 5217,5428 5090,5759 4963,6091 4857,6421 4750,6813 4749,6818 4748,6822 4747,6826 4745,6831 4744,6834 4743,6839 Z"/>
         <path fill="none" stroke="rgb(0,0,0)" stroke-width="52" stroke-linejoin="miter" d="M 4747,6826 L 4747,6826 C 4745,6831 4744,6834 4743,6839 4636,7231 4561,7568 4504,7916 4446,8263 4422,8517 4429,8726 4435,8936 4469,9039 4538,9054 4607,9070 4690,8994 4804,8811 4917,8628 5026,8394 5153,8062 5280,7730 5386,7400 5493,7008 5494,7003 5495,7000 5497,6995 L 5497,6995 C 5498,6991 5499,6987 5500,6982 5607,6590 5682,6253 5740,5906 5798,5558 5821,5305 5815,5095 5808,4885 5774,4783 5705,4767 5636,4752 5553,4828 5440,5010 5327,5193 5217,5428 5090,5759 4963,6091 4857,6421 4750,6813 4749,6818 4748,6822 4747,6826 L 4747,6826 Z"/>
         <path fill="rgb(244,177,51)" stroke="none" d="M 3477,6741 C 3359,7131 3275,7466 3207,7812 3139,8158 3108,8411 3109,8620 3109,8830 3141,8933 3209,8951 3278,8968 3363,8894 3481,8714 3600,8534 3716,8302 3852,7973 3988,7644 4104,7317 4222,6928 4224,6923 4225,6919 4226,6915 4227,6911 4228,6907 4230,6902 4348,6513 4432,6178 4500,5832 4568,5486 4599,5233 4598,5023 4598,4813 4566,4710 4498,4693 4429,4676 4344,4750 4226,4930 4107,5110 3991,5341 3855,5670 3719,5999 3603,6326 3485,6716 3484,6720 3482,6724 3481,6728 3480,6733 3479,6736 3477,6741 Z"/>
         <path fill="none" stroke="rgb(0,0,0)" stroke-width="52" stroke-linejoin="miter" d="M 3481,6728 L 3481,6728 C 3480,6733 3479,6736 3477,6741 3359,7131 3275,7466 3207,7812 3139,8158 3108,8411 3109,8620 3109,8830 3141,8933 3209,8951 3278,8968 3363,8894 3481,8714 3600,8534 3716,8302 3852,7973 3988,7644 4104,7317 4222,6928 4224,6923 4225,6919 4226,6915 L 4226,6915 C 4227,6911 4228,6907 4230,6902 4348,6513 4432,6178 4500,5832 4568,5486 4599,5233 4598,5023 4598,4813 4566,4710 4498,4693 4429,4676 4344,4750 4226,4930 4107,5110 3991,5341 3855,5670 3719,5999 3603,6326 3485,6716 3484,6720 3482,6724 3481,6728 L 3481,6728 Z"/>
         <path fill="rgb(244,177,51)" stroke="none" d="M 2359,6470 C 2234,6857 2143,7191 2069,7536 1995,7881 1960,8134 1957,8343 1953,8553 1983,8657 2051,8675 2119,8693 2206,8620 2327,8442 2449,8264 2569,8034 2711,7707 2854,7381 2975,7055 3100,6667 3102,6663 3103,6659 3104,6655 3106,6651 3107,6647 3109,6642 3233,6255 3324,5921 3398,5576 3472,5231 3508,4978 3511,4769 3514,4559 3485,4455 3417,4437 3348,4419 3262,4492 3140,4670 3019,4848 2899,5078 2756,5405 2614,5731 2492,6057 2367,6445 2366,6449 2365,6453 2363,6457 2362,6462 2361,6465 2359,6470 Z"/>
         <path fill="none" stroke="rgb(0,0,0)" stroke-width="52" stroke-linejoin="miter" d="M 2363,6457 L 2363,6457 C 2362,6462 2361,6465 2359,6470 2234,6857 2143,7191 2069,7536 1995,7881 1960,8134 1957,8343 1953,8553 1983,8657 2051,8675 2119,8693 2206,8620 2327,8442 2449,8264 2569,8034 2711,7707 2854,7381 2975,7055 3100,6667 3102,6663 3103,6659 3104,6655 L 3104,6655 C 3106,6651 3107,6647 3109,6642 3233,6255 3324,5921 3398,5576 3472,5231 3508,4978 3511,4769 3514,4559 3485,4455 3417,4437 3348,4419 3262,4492 3140,4670 3019,4848 2899,5078 2756,5405 2614,5731 2492,6057 2367,6445 2366,6449 2365,6453 2363,6457 L 2363,6457 Z"/>
         <path fill="rgb(0,0,0)" stroke="none" d="M 5157,3653 C 5124,3755 5118,3847 5136,3948 5155,4049 5193,4128 5258,4201 5323,4274 5396,4319 5490,4344 5584,4369 5672,4367 5770,4338 5868,4308 5947,4260 6023,4184 6099,4109 6148,4027 6181,3925 6214,3823 6220,3730 6202,3629 6183,3528 6145,3449 6080,3376 6015,3303 5942,3259 5848,3234 5754,3208 5666,3210 5568,3240 5470,3269 5391,3317 5315,3393 5242,3467 5193,3545 5160,3644 L 5157,3653 Z"/>
         <path fill="none" stroke="rgb(0,0,0)" stroke-width="44" stroke-linejoin="miter" d="M 5157,3653 L 5157,3653 C 5124,3755 5118,3847 5136,3948 5155,4049 5193,4128 5258,4201 5323,4274 5396,4319 5490,4344 5584,4369 5672,4367 5770,4338 5868,4308 5947,4260 6023,4184 6099,4109 6148,4027 6181,3925 6214,3823 6220,3730 6202,3629 6183,3528 6145,3449 6080,3376 6015,3303 5942,3259 5848,3234 5754,3208 5666,3210 5568,3240 5470,3269 5391,3317 5315,3393 5242,3467 5193,3545 5160,3644"/>
         <path fill="rgb(0,0,0)" stroke="none" d="M 4696,3672 C 4663,3774 4657,3866 4675,3967 4694,4068 4732,4147 4797,4220 4862,4293 4935,4337 5029,4363 5123,4388 5211,4386 5309,4357 5407,4327 5486,4279 5562,4203 5638,4127 5687,4046 5720,3944 5753,3842 5759,3749 5741,3648 5722,3547 5684,3468 5619,3395 5554,3322 5481,3278 5387,3252 5293,3227 5205,3229 5107,3259 5009,3288 4930,3336 4854,3412 4781,3485 4732,3564 4699,3663 L 4696,3672 Z"/>
         <path fill="none" stroke="rgb(0,0,0)" stroke-width="44" stroke-linejoin="miter" d="M 4696,3672 L 4696,3672 C 4663,3774 4657,3866 4675,3967 4694,4068 4732,4147 4797,4220 4862,4293 4935,4337 5029,4363 5123,4388 5211,4386 5309,4357 5407,4327 5486,4279 5562,4203 5638,4127 5687,4046 5720,3944 5753,3842 5759,3749 5741,3648 5722,3547 5684,3468 5619,3395 5554,3322 5481,3278 5387,3252 5293,3227 5205,3229 5107,3259 5009,3288 4930,3336 4854,3412 4781,3485 4732,3564 4699,3663"/>
         <path fill="rgb(0,0,0)" stroke="none" d="M 4110,3870 C 4077,3972 4071,4064 4089,4165 4108,4266 4146,4345 4211,4418 4276,4491 4349,4536 4443,4561 4537,4586 4625,4584 4723,4555 4821,4525 4900,4477 4976,4402 5052,4326 5101,4244 5134,4142 5167,4040 5173,3948 5155,3846 5136,3745 5098,3666 5033,3593 4968,3520 4895,3476 4801,3451 4707,3426 4619,3427 4521,3457 4423,3486 4344,3534 4268,3610 4195,3684 4146,3762 4113,3861 L 4110,3870 Z"/>
         <path fill="none" stroke="rgb(0,0,0)" stroke-width="44" stroke-linejoin="miter" d="M 4110,3870 L 4110,3870 C 4077,3972 4071,4064 4089,4165 4108,4266 4146,4345 4211,4418 4276,4491 4349,4536 4443,4561 4537,4586 4625,4584 4723,4555 4821,4525 4900,4477 4976,4402 5052,4326 5101,4244 5134,4142 5167,4040 5173,3948 5155,3846 5136,3745 5098,3666 5033,3593 4968,3520 4895,3476 4801,3451 4707,3426 4619,3427 4521,3457 4423,3486 4344,3534 4268,3610 4195,3684 4146,3762 4113,3861"/>
         <path fill="rgb(0,0,0)" stroke="none" d="M 4110,3870 C 4077,3972 4071,4064 4089,4165 4108,4266 4146,4345 4211,4418 4276,4491 4349,4536 4443,4561 4537,4586 4625,4584 4723,4555 4821,4525 4900,4477 4976,4402 5052,4326 5101,4244 5134,4142 5167,4040 5173,3948 5155,3846 5136,3745 5098,3666 5033,3593 4968,3520 4895,3476 4801,3451 4707,3426 4619,3427 4521,3457 4423,3486 4344,3534 4268,3610 4195,3684 4146,3762 4113,3861 L 4110,3870 Z"/>
         <path fill="none" stroke="rgb(0,0,0)" stroke-width="44" stroke-linejoin="miter" d="M 4110,3870 L 4110,3870 C 4077,3972 4071,4064 4089,4165 4108,4266 4146,4345 4211,4418 4276,4491 4349,4536 4443,4561 4537,4586 4625,4584 4723,4555 4821,4525 4900,4477 4976,4402 5052,4326 5101,4244 5134,4142 5167,4040 5173,3948 5155,3846 5136,3745 5098,3666 5033,3593 4968,3520 4895,3476 4801,3451 4707,3426 4619,3427 4521,3457 4423,3486 4344,3534 4268,3610 4195,3684 4146,3762 4113,3861"/>
         <path fill="rgb(0,0,0)" stroke="none" d="M 4110,3870 C 4077,3972 4071,4064 4089,4165 4108,4266 4146,4345 4211,4418 4276,4491 4349,4536 4443,4561 4537,4586 4625,4584 4723,4555 4821,4525 4900,4477 4976,4402 5052,4326 5101,4244 5134,4142 5167,4040 5173,3948 5155,3846 5136,3745 5098,3666 5033,3593 4968,3520 4895,3476 4801,3451 4707,3426 4619,3427 4521,3457 4423,3486 4344,3534 4268,3610 4195,3684 4146,3762 4113,3861 L 4110,3870 Z"/>
         <path fill="none" stroke="rgb(0,0,0)" stroke-width="44" stroke-linejoin="miter" d="M 4110,3870 L 4110,3870 C 4077,3972 4071,4064 4089,4165 4108,4266 4146,4345 4211,4418 4276,4491 4349,4536 4443,4561 4537,4586 4625,4584 4723,4555 4821,4525 4900,4477 4976,4402 5052,4326 5101,4244 5134,4142 5167,4040 5173,3948 5155,3846 5136,3745 5098,3666 5033,3593 4968,3520 4895,3476 4801,3451 4707,3426 4619,3427 4521,3457 4423,3486 4344,3534 4268,3610 4195,3684 4146,3762 4113,3861"/>
         <path fill="rgb(0,0,0)" stroke="none" d="M 4636,4277 C 4603,4378 4597,4471 4615,4571 4634,4672 4672,4752 4737,4824 4802,4897 4875,4942 4969,4967 5063,4992 5151,4990 5249,4961 5347,4932 5426,4884 5502,4808 5578,4732 5627,4651 5660,4549 5693,4446 5699,4354 5681,4253 5662,4152 5624,4072 5559,4000 5494,3927 5421,3882 5327,3857 5233,3832 5145,3834 5047,3863 4949,3892 4870,3940 4794,4016 4721,4090 4672,4168 4639,4267 L 4636,4277 Z"/>
         <path fill="none" stroke="rgb(0,0,0)" stroke-width="44" stroke-linejoin="miter" d="M 4636,4277 L 4636,4277 C 4603,4378 4597,4471 4615,4571 4634,4672 4672,4752 4737,4824 4802,4897 4875,4942 4969,4967 5063,4992 5151,4990 5249,4961 5347,4932 5426,4884 5502,4808 5578,4732 5627,4651 5660,4549 5693,4446 5699,4354 5681,4253 5662,4152 5624,4072 5559,4000 5494,3927 5421,3882 5327,3857 5233,3832 5145,3834 5047,3863 4949,3892 4870,3940 4794,4016 4721,4090 4672,4168 4639,4267"/>
         <path fill="rgb(0,0,0)" stroke="none" d="M 4914,4511 C 4882,4612 4875,4704 4894,4805 4912,4906 4951,4985 5016,5058 5081,5131 5153,5176 5248,5201 5342,5226 5430,5224 5528,5195 5626,5166 5705,5118 5780,5042 5856,4966 5906,4885 5938,4782 5971,4680 5978,4588 5959,4487 5941,4386 5903,4306 5837,4233 5772,4161 5700,4116 5605,4091 5511,4066 5424,4068 5325,4097 5227,4126 5148,4174 5073,4250 4999,4324 4951,4402 4917,4501 L 4914,4511 Z"/>
         <path fill="none" stroke="rgb(0,0,0)" stroke-width="44" stroke-linejoin="miter" d="M 4914,4511 L 4914,4511 C 4882,4612 4875,4704 4894,4805 4912,4906 4951,4985 5016,5058 5081,5131 5153,5176 5248,5201 5342,5226 5430,5224 5528,5195 5626,5166 5705,5118 5780,5042 5856,4966 5906,4885 5938,4782 5971,4680 5978,4588 5959,4487 5941,4386 5903,4306 5837,4233 5772,4161 5700,4116 5605,4091 5511,4066 5424,4068 5325,4097 5227,4126 5148,4174 5073,4250 4999,4324 4951,4402 4917,4501"/>
         <path fill="rgb(0,0,0)" stroke="none" d="M 5182,4777 C 5150,4879 5143,4971 5162,5072 5180,5173 5218,5252 5284,5325 5349,5398 5421,5442 5516,5467 5610,5493 5697,5491 5796,5461 5894,5432 5973,5384 6048,5308 6124,5232 6173,5151 6206,5049 6239,4947 6246,4854 6227,4753 6209,4652 6170,4573 6105,4500 6040,4427 5968,4382 5873,4357 5779,4332 5691,4334 5593,4363 5495,4393 5416,4441 5341,4517 5267,4590 5219,4669 5185,4768 L 5182,4777 Z"/>
         <path fill="none" stroke="rgb(0,0,0)" stroke-width="44" stroke-linejoin="miter" d="M 5182,4777 L 5182,4777 C 5150,4879 5143,4971 5162,5072 5180,5173 5218,5252 5284,5325 5349,5398 5421,5442 5516,5467 5610,5493 5697,5491 5796,5461 5894,5432 5973,5384 6048,5308 6124,5232 6173,5151 6206,5049 6239,4947 6246,4854 6227,4753 6209,4652 6170,4573 6105,4500 6040,4427 5968,4382 5873,4357 5779,4332 5691,4334 5593,4363 5495,4393 5416,4441 5341,4517 5267,4590 5219,4669 5185,4768"/>
         <path fill="rgb(0,0,0)" stroke="none" d="M 5553,4202 C 5520,4304 5514,4396 5532,4497 5551,4598 5589,4677 5654,4750 5719,4823 5792,4867 5886,4893 5980,4918 6068,4916 6166,4887 6264,4857 6343,4809 6419,4733 6495,4657 6544,4576 6577,4474 6610,4372 6616,4279 6598,4178 6579,4077 6541,3998 6476,3925 6411,3852 6338,3808 6244,3782 6150,3757 6062,3759 5964,3789 5866,3818 5787,3866 5711,3942 5638,4015 5589,4094 5556,4193 L 5553,4202 Z"/>
         <path fill="none" stroke="rgb(0,0,0)" stroke-width="44" stroke-linejoin="miter" d="M 5553,4202 L 5553,4202 C 5520,4304 5514,4396 5532,4497 5551,4598 5589,4677 5654,4750 5719,4823 5792,4867 5886,4893 5980,4918 6068,4916 6166,4887 6264,4857 6343,4809 6419,4733 6495,4657 6544,4576 6577,4474 6610,4372 6616,4279 6598,4178 6579,4077 6541,3998 6476,3925 6411,3852 6338,3808 6244,3782 6150,3757 6062,3759 5964,3789 5866,3818 5787,3866 5711,3942 5638,4015 5589,4094 5556,4193"/>
         <path fill="rgb(0,0,0)" stroke="none" d="M 4819,3971 C 4786,4073 4780,4165 4798,4265 4817,4367 4855,4446 4920,4519 4985,4591 5058,4636 5152,4661 5246,4686 5334,4685 5432,4655 5530,4626 5609,4578 5685,4502 5760,4426 5810,4345 5843,4243 5876,4141 5882,4048 5864,3947 5845,3846 5807,3767 5742,3694 5677,3621 5604,3576 5510,3551 5415,3526 5328,3528 5230,3557 5132,3587 5053,3634 4977,3710 4903,3784 4855,3862 4822,3961 L 4819,3971 Z"/>
         <path fill="none" stroke="rgb(0,0,0)" stroke-width="44" stroke-linejoin="miter" d="M 4819,3971 L 4819,3971 C 4786,4073 4780,4165 4798,4265 4817,4367 4855,4446 4920,4519 4985,4591 5058,4636 5152,4661 5246,4686 5334,4685 5432,4655 5530,4626 5609,4578 5685,4502 5760,4426 5810,4345 5843,4243 5876,4141 5882,4048 5864,3947 5845,3846 5807,3767 5742,3694 5677,3621 5604,3576 5510,3551 5415,3526 5328,3528 5230,3557 5132,3587 5053,3634 4977,3710 4903,3784 4855,3862 4822,3961"/>
         <path fill="rgb(0,0,0)" stroke="none" d="M 4463,3557 C 4431,3659 4424,3751 4443,3852 4462,3953 4500,4032 4565,4105 4630,4178 4703,4222 4797,4247 4891,4273 4979,4271 5077,4241 5175,4212 5254,4164 5330,4088 5405,4012 5455,3931 5488,3829 5521,3727 5527,3634 5508,3533 5490,3432 5452,3353 5387,3280 5321,3207 5249,3162 5155,3137 5060,3112 4973,3114 4875,3143 4777,3173 4697,3221 4622,3297 4548,3370 4500,3449 4466,3548 L 4463,3557 Z"/>
         <path fill="none" stroke="rgb(0,0,0)" stroke-width="44" stroke-linejoin="miter" d="M 4463,3557 L 4463,3557 C 4431,3659 4424,3751 4443,3852 4462,3953 4500,4032 4565,4105 4630,4178 4703,4222 4797,4247 4891,4273 4979,4271 5077,4241 5175,4212 5254,4164 5330,4088 5405,4012 5455,3931 5488,3829 5521,3727 5527,3634 5508,3533 5490,3432 5452,3353 5387,3280 5321,3207 5249,3162 5155,3137 5060,3112 4973,3114 4875,3143 4777,3173 4697,3221 4622,3297 4548,3370 4500,3449 4466,3548"/>
         <path fill="rgb(0,0,0)" stroke="none" d="M 4284,3225 C 4251,3327 4245,3419 4263,3520 4282,3621 4320,3700 4385,3773 4450,3846 4523,3891 4617,3916 4711,3941 4799,3939 4897,3910 4995,3880 5074,3832 5150,3757 5226,3681 5275,3600 5308,3497 5341,3395 5347,3303 5329,3202 5310,3100 5272,3021 5207,2948 5142,2875 5069,2831 4975,2806 4881,2781 4793,2782 4695,2812 4597,2841 4518,2889 4442,2965 4369,3039 4320,3117 4287,3216 L 4284,3225 Z"/>
         <path fill="none" stroke="rgb(0,0,0)" stroke-width="44" stroke-linejoin="miter" d="M 4284,3225 L 4284,3225 C 4251,3327 4245,3419 4263,3520 4282,3621 4320,3700 4385,3773 4450,3846 4523,3891 4617,3916 4711,3941 4799,3939 4897,3910 4995,3880 5074,3832 5150,3757 5226,3681 5275,3600 5308,3497 5341,3395 5347,3303 5329,3202 5310,3100 5272,3021 5207,2948 5142,2875 5069,2831 4975,2806 4881,2781 4793,2782 4695,2812 4597,2841 4518,2889 4442,2965 4369,3039 4320,3117 4287,3216"/>
         <path fill="rgb(0,0,0)" stroke="none" d="M 4093,3033 C 4061,3135 4054,3227 4073,3327 4091,3428 4129,3508 4195,3580 4260,3653 4332,3698 4427,3723 4521,3748 4608,3746 4707,3717 4805,3688 4884,3640 4959,3564 5035,3488 5084,3407 5117,3305 5150,3202 5157,3110 5138,3009 5120,2908 5081,2829 5016,2756 4951,2683 4879,2638 4784,2613 4690,2588 4602,2590 4504,2619 4406,2648 4327,2696 4252,2772 4178,2846 4130,2924 4096,3023 L 4093,3033 Z"/>
         <path fill="none" stroke="rgb(0,0,0)" stroke-width="44" stroke-linejoin="miter" d="M 4093,3033 L 4093,3033 C 4061,3135 4054,3227 4073,3327 4091,3428 4129,3508 4195,3580 4260,3653 4332,3698 4427,3723 4521,3748 4608,3746 4707,3717 4805,3688 4884,3640 4959,3564 5035,3488 5084,3407 5117,3305 5150,3202 5157,3110 5138,3009 5120,2908 5081,2829 5016,2756 4951,2683 4879,2638 4784,2613 4690,2588 4602,2590 4504,2619 4406,2648 4327,2696 4252,2772 4178,2846 4130,2924 4096,3023"/>
         <path fill="rgb(0,0,0)" stroke="none" d="M 3470,3345 C 3438,3447 3431,3539 3450,3640 3468,3741 3507,3820 3572,3893 3637,3966 3709,4010 3804,4036 3898,4061 3986,4059 4084,4030 4182,4000 4261,3952 4337,3876 4412,3800 4462,3719 4495,3617 4527,3515 4534,3422 4515,3321 4497,3220 4459,3141 4393,3068 4328,2995 4256,2951 4161,2926 4067,2900 3980,2902 3882,2932 3783,2961 3704,3009 3629,3085 3555,3159 3507,3237 3473,3336 L 3470,3345 Z"/>
         <path fill="none" stroke="rgb(0,0,0)" stroke-width="44" stroke-linejoin="miter" d="M 3470,3345 L 3470,3345 C 3438,3447 3431,3539 3450,3640 3468,3741 3507,3820 3572,3893 3637,3966 3709,4010 3804,4036 3898,4061 3986,4059 4084,4030 4182,4000 4261,3952 4337,3876 4412,3800 4462,3719 4495,3617 4527,3515 4534,3422 4515,3321 4497,3220 4459,3141 4393,3068 4328,2995 4256,2951 4161,2926 4067,2900 3980,2902 3882,2932 3783,2961 3704,3009 3629,3085 3555,3159 3507,3237 3473,3336"/>
         <path fill="rgb(0,0,0)" stroke="none" d="M 3061,3413 C 3028,3515 3022,3607 3040,3708 3059,3809 3097,3888 3162,3961 3227,4034 3300,4079 3394,4104 3489,4129 3576,4127 3674,4098 3772,4068 3851,4020 3927,3944 4003,3869 4052,3787 4085,3685 4118,3583 4125,3490 4106,3389 4087,3288 4049,3209 3984,3136 3919,3063 3846,3019 3752,2994 3658,2968 3570,2970 3472,3000 3374,3029 3295,3077 3219,3153 3146,3227 3097,3305 3064,3404 L 3061,3413 Z"/>
         <path fill="none" stroke="rgb(0,0,0)" stroke-width="44" stroke-linejoin="miter" d="M 3061,3413 L 3061,3413 C 3028,3515 3022,3607 3040,3708 3059,3809 3097,3888 3162,3961 3227,4034 3300,4079 3394,4104 3489,4129 3576,4127 3674,4098 3772,4068 3851,4020 3927,3944 4003,3869 4052,3787 4085,3685 4118,3583 4125,3490 4106,3389 4087,3288 4049,3209 3984,3136 3919,3063 3846,3019 3752,2994 3658,2968 3570,2970 3472,3000 3374,3029 3295,3077 3219,3153 3146,3227 3097,3305 3064,3404"/>
         <path fill="rgb(0,0,0)" stroke="none" d="M 2859,3306 C 2827,3408 2820,3500 2839,3601 2858,3702 2896,3781 2961,3854 3026,3927 3099,3972 3193,3997 3287,4022 3375,4020 3473,3991 3571,3961 3650,3913 3726,3838 3801,3762 3851,3680 3884,3578 3917,3476 3923,3384 3905,3282 3886,3181 3848,3102 3783,3029 3717,2956 3645,2912 3551,2887 3456,2862 3369,2863 3271,2893 3173,2922 3093,2970 3018,3046 2944,3120 2896,3198 2863,3297 L 2859,3306 Z"/>
         <path fill="none" stroke="rgb(0,0,0)" stroke-width="44" stroke-linejoin="miter" d="M 2859,3306 L 2859,3306 C 2827,3408 2820,3500 2839,3601 2858,3702 2896,3781 2961,3854 3026,3927 3099,3972 3193,3997 3287,4022 3375,4020 3473,3991 3571,3961 3650,3913 3726,3838 3801,3762 3851,3680 3884,3578 3917,3476 3923,3384 3905,3282 3886,3181 3848,3102 3783,3029 3717,2956 3645,2912 3551,2887 3456,2862 3369,2863 3271,2893 3173,2922 3093,2970 3018,3046 2944,3120 2896,3198 2863,3297"/>
         <path fill="rgb(0,0,0)" stroke="none" d="M 3508,4118 C 3475,4219 3469,4311 3487,4412 3506,4513 3544,4592 3609,4665 3674,4738 3747,4783 3841,4808 3935,4833 4023,4831 4121,4802 4219,4773 4298,4725 4374,4649 4450,4573 4499,4492 4532,4389 4565,4287 4571,4195 4553,4094 4534,3993 4496,3913 4431,3840 4366,3768 4293,3723 4199,3698 4105,3673 4017,3675 3919,3704 3821,3733 3742,3781 3666,3857 3593,3931 3544,4009 3511,4108 L 3508,4118 Z"/>
         <path fill="none" stroke="rgb(0,0,0)" stroke-width="44" stroke-linejoin="miter" d="M 3508,4118 L 3508,4118 C 3475,4219 3469,4311 3487,4412 3506,4513 3544,4592 3609,4665 3674,4738 3747,4783 3841,4808 3935,4833 4023,4831 4121,4802 4219,4773 4298,4725 4374,4649 4450,4573 4499,4492 4532,4389 4565,4287 4571,4195 4553,4094 4534,3993 4496,3913 4431,3840 4366,3768 4293,3723 4199,3698 4105,3673 4017,3675 3919,3704 3821,3733 3742,3781 3666,3857 3593,3931 3544,4009 3511,4108"/>
         <path fill="rgb(0,0,0)" stroke="none" d="M 3569,4240 C 3537,4342 3530,4434 3549,4535 3567,4636 3606,4715 3671,4788 3736,4861 3808,4906 3903,4931 3997,4956 4085,4954 4183,4925 4281,4895 4360,4847 4435,4772 4511,4696 4561,4614 4594,4512 4626,4410 4633,4318 4614,4216 4596,4115 4558,4036 4492,3963 4427,3890 4355,3846 4260,3821 4166,3796 4079,3797 3981,3827 3882,3856 3803,3904 3728,3980 3654,4054 3606,4132 3572,4231 L 3569,4240 Z"/>
         <path fill="none" stroke="rgb(0,0,0)" stroke-width="44" stroke-linejoin="miter" d="M 3569,4240 L 3569,4240 C 3537,4342 3530,4434 3549,4535 3567,4636 3606,4715 3671,4788 3736,4861 3808,4906 3903,4931 3997,4956 4085,4954 4183,4925 4281,4895 4360,4847 4435,4772 4511,4696 4561,4614 4594,4512 4626,4410 4633,4318 4614,4216 4596,4115 4558,4036 4492,3963 4427,3890 4355,3846 4260,3821 4166,3796 4079,3797 3981,3827 3882,3856 3803,3904 3728,3980 3654,4054 3606,4132 3572,4231"/>
         <path fill="rgb(0,0,0)" stroke="none" d="M 4074,4712 C 4042,4814 4035,4906 4054,5007 4072,5108 4111,5187 4176,5260 4241,5333 4314,5377 4408,5402 4502,5427 4590,5426 4688,5396 4786,5367 4865,5319 4941,5243 5016,5167 5066,5086 5099,4984 5132,4882 5138,4789 5119,4688 5101,4587 5063,4508 4998,4435 4932,4362 4860,4317 4766,4292 4671,4267 4584,4269 4486,4298 4387,4328 4308,4376 4233,4451 4159,4525 4111,4604 4077,4702 L 4074,4712 Z"/>
         <path fill="none" stroke="rgb(0,0,0)" stroke-width="44" stroke-linejoin="miter" d="M 4074,4712 L 4074,4712 C 4042,4814 4035,4906 4054,5007 4072,5108 4111,5187 4176,5260 4241,5333 4314,5377 4408,5402 4502,5427 4590,5426 4688,5396 4786,5367 4865,5319 4941,5243 5016,5167 5066,5086 5099,4984 5132,4882 5138,4789 5119,4688 5101,4587 5063,4508 4998,4435 4932,4362 4860,4317 4766,4292 4671,4267 4584,4269 4486,4298 4387,4328 4308,4376 4233,4451 4159,4525 4111,4604 4077,4702"/>
         <path fill="rgb(0,0,0)" stroke="none" d="M 4374,4934 C 4341,5035 4335,5128 4353,5228 4372,5329 4410,5408 4475,5481 4540,5554 4613,5599 4707,5624 4801,5649 4889,5647 4987,5618 5085,5589 5164,5541 5240,5465 5315,5389 5365,5308 5398,5206 5431,5103 5437,5011 5419,4910 5400,4809 5362,4729 5297,4657 5232,4584 5159,4539 5065,4514 4970,4489 4883,4491 4785,4520 4687,4549 4608,4597 4532,4673 4458,4747 4410,4825 4377,4924 L 4374,4934 Z"/>
         <path fill="none" stroke="rgb(0,0,0)" stroke-width="44" stroke-linejoin="miter" d="M 4374,4934 L 4374,4934 C 4341,5035 4335,5128 4353,5228 4372,5329 4410,5408 4475,5481 4540,5554 4613,5599 4707,5624 4801,5649 4889,5647 4987,5618 5085,5589 5164,5541 5240,5465 5315,5389 5365,5308 5398,5206 5431,5103 5437,5011 5419,4910 5400,4809 5362,4729 5297,4657 5232,4584 5159,4539 5065,4514 4970,4489 4883,4491 4785,4520 4687,4549 4608,4597 4532,4673 4458,4747 4410,4825 4377,4924"/>
         <path fill="rgb(0,0,0)" stroke="none" d="M 4648,4971 C 4615,5073 4609,5165 4627,5266 4646,5367 4684,5446 4749,5519 4814,5592 4887,5637 4981,5662 5076,5687 5163,5685 5261,5656 5359,5626 5438,5578 5514,5502 5590,5427 5639,5345 5672,5243 5705,5141 5712,5048 5693,4947 5674,4846 5636,4767 5571,4694 5506,4621 5433,4577 5339,4552 5245,4526 5157,4528 5059,4558 4961,4587 4882,4635 4806,4711 4733,4785 4684,4863 4651,4962 L 4648,4971 Z"/>
         <path fill="none" stroke="rgb(0,0,0)" stroke-width="44" stroke-linejoin="miter" d="M 4648,4971 L 4648,4971 C 4615,5073 4609,5165 4627,5266 4646,5367 4684,5446 4749,5519 4814,5592 4887,5637 4981,5662 5076,5687 5163,5685 5261,5656 5359,5626 5438,5578 5514,5502 5590,5427 5639,5345 5672,5243 5705,5141 5712,5048 5693,4947 5674,4846 5636,4767 5571,4694 5506,4621 5433,4577 5339,4552 5245,4526 5157,4528 5059,4558 4961,4587 4882,4635 4806,4711 4733,4785 4684,4863 4651,4962"/>
         <path fill="rgb(244,227,130)" stroke="none" d="M 5191,6991 C 5129,7221 5082,7417 5041,7618 4999,7824 4975,7973 4964,8095 4954,8217 4960,8275 4984,8281 5008,8287 5043,8239 5095,8128 5147,8016 5201,7875 5267,7676 5333,7477 5392,7280 5454,7046 5517,6813 5565,6613 5607,6408 5649,6203 5673,6054 5683,5932 5694,5810 5688,5752 5664,5746 5640,5740 5605,5787 5553,5899 5501,6010 5447,6152 5381,6351 5316,6547 5258,6740 5196,6969 L 5191,6991 Z"/>
         <path fill="rgb(255,255,255)" stroke="none" d="M 5177,3721 C 5145,3823 5138,3915 5157,4015 5175,4116 5213,4196 5279,4269 5344,4341 5416,4386 5511,4411 5605,4436 5692,4434 5791,4405 5889,4376 5968,4328 6043,4252 6119,4176 6168,4095 6201,3993 6234,3891 6241,3798 6222,3697 6204,3596 6165,3517 6100,3444 6035,3371 5963,3326 5868,3301 5774,3276 5686,3278 5588,3307 5490,3336 5411,3384 5336,3460 5262,3534 5214,3612 5180,3711 L 5177,3721 Z"/>
         <path fill="rgb(255,255,255)" stroke="none" d="M 4716,3740 C 4684,3841 4677,3934 4696,4034 4714,4135 4752,4215 4818,4287 4883,4360 4955,4405 5050,4430 5144,4455 5231,4453 5330,4424 5428,4395 5507,4347 5582,4271 5658,4195 5707,4114 5740,4012 5773,3909 5780,3817 5761,3716 5743,3615 5705,3535 5639,3463 5574,3390 5502,3345 5407,3320 5313,3295 5226,3297 5127,3326 5029,3355 4950,3403 4875,3479 4801,3553 4753,3631 4719,3730 L 4716,3740 Z"/>
         <path fill="rgb(255,255,255)" stroke="none" d="M 4130,3938 C 4097,4040 4091,4132 4110,4232 4128,4334 4166,4413 4232,4486 4297,4558 4369,4603 4464,4628 4558,4653 4645,4651 4743,4622 4842,4593 4921,4545 4996,4469 5072,4393 5121,4312 5154,4210 5187,4108 5194,4015 5175,3914 5157,3813 5118,3734 5053,3661 4988,3588 4915,3543 4821,3518 4727,3493 4639,3495 4541,3524 4443,3554 4364,3601 4288,3677 4215,3751 4167,3829 4133,3928 L 4130,3938 Z"/>
         <path fill="rgb(255,255,255)" stroke="none" d="M 4130,3938 C 4097,4040 4091,4132 4110,4232 4128,4334 4166,4413 4232,4486 4297,4558 4369,4603 4464,4628 4558,4653 4645,4651 4743,4622 4842,4593 4921,4545 4996,4469 5072,4393 5121,4312 5154,4210 5187,4108 5194,4015 5175,3914 5157,3813 5118,3734 5053,3661 4988,3588 4915,3543 4821,3518 4727,3493 4639,3495 4541,3524 4443,3554 4364,3601 4288,3677 4215,3751 4167,3829 4133,3928 L 4130,3938 Z"/>
         <path fill="rgb(255,255,255)" stroke="none" d="M 4130,3938 C 4097,4040 4091,4132 4110,4232 4128,4334 4166,4413 4232,4486 4297,4558 4369,4603 4464,4628 4558,4653 4645,4651 4743,4622 4842,4593 4921,4545 4996,4469 5072,4393 5121,4312 5154,4210 5187,4108 5194,4015 5175,3914 5157,3813 5118,3734 5053,3661 4988,3588 4915,3543 4821,3518 4727,3493 4639,3495 4541,3524 4443,3554 4364,3601 4288,3677 4215,3751 4167,3829 4133,3928 L 4130,3938 Z"/>
         <path fill="rgb(255,255,255)" stroke="none" d="M 4656,4344 C 4624,4446 4617,4538 4636,4639 4654,4740 4692,4819 4758,4892 4823,4965 4895,5009 4990,5035 5084,5060 5171,5058 5270,5028 5368,4999 5447,4951 5522,4875 5598,4799 5647,4718 5680,4616 5713,4514 5720,4421 5701,4320 5683,4219 5645,4140 5579,4067 5514,3994 5442,3950 5347,3924 5253,3899 5165,3901 5067,3930 4969,3960 4890,4008 4815,4084 4741,4157 4693,4236 4659,4335 L 4656,4344 Z"/>
         <path fill="rgb(255,255,255)" stroke="none" d="M 4935,4578 C 4902,4680 4896,4772 4914,4873 4933,4974 4971,5053 5036,5126 5101,5199 5174,5243 5268,5268 5362,5294 5450,5292 5548,5262 5646,5233 5725,5185 5801,5109 5876,5033 5926,4952 5959,4850 5992,4748 5998,4655 5980,4554 5961,4453 5923,4374 5858,4301 5793,4228 5720,4183 5626,4158 5532,4133 5444,4135 5346,4164 5248,4194 5169,4242 5093,4318 5019,4391 4971,4470 4938,4569 L 4935,4578 Z"/>
         <path fill="rgb(255,255,255)" stroke="none" d="M 5202,4844 C 5170,4946 5164,5038 5182,5139 5201,5240 5239,5319 5304,5392 5369,5465 5442,5510 5536,5535 5630,5560 5718,5558 5816,5529 5914,5499 5993,5452 6069,5376 6144,5300 6194,5219 6227,5116 6260,5014 6266,4922 6248,4821 6229,4720 6191,4640 6126,4567 6061,4495 5988,4450 5894,4425 5799,4400 5712,4402 5614,4431 5516,4460 5437,4508 5361,4584 5287,4658 5239,4736 5206,4835 L 5202,4844 Z"/>
         <path fill="rgb(255,255,255)" stroke="none" d="M 5573,4270 C 5540,4371 5534,4464 5553,4564 5571,4665 5609,4745 5675,4817 5740,4890 5812,4935 5907,4960 6001,4985 6088,4983 6186,4954 6285,4925 6364,4877 6439,4801 6515,4725 6564,4644 6597,4542 6630,4439 6637,4347 6618,4246 6600,4145 6561,4065 6496,3993 6431,3920 6358,3875 6264,3850 6170,3825 6082,3827 5984,3856 5886,3885 5807,3933 5731,4009 5658,4083 5609,4161 5576,4260 L 5573,4270 Z"/>
         <path fill="rgb(255,255,255)" stroke="none" d="M 4839,4038 C 4806,4140 4800,4232 4818,4333 4837,4434 4875,4513 4940,4586 5006,4659 5078,4704 5172,4729 5267,4754 5354,4752 5452,4723 5550,4693 5630,4645 5705,4569 5781,4494 5830,4412 5863,4310 5896,4208 5903,4115 5884,4014 5865,3913 5827,3834 5762,3761 5697,3688 5624,3644 5530,3619 5436,3593 5348,3595 5250,3625 5152,3654 5073,3702 4997,3778 4924,3852 4875,3930 4842,4029 L 4839,4038 Z"/>
         <path fill="rgb(255,255,255)" stroke="none" d="M 4484,3624 C 4451,3726 4445,3818 4463,3919 4482,4020 4520,4099 4585,4172 4650,4245 4723,4290 4817,4315 4911,4340 4999,4338 5097,4309 5195,4279 5274,4232 5350,4156 5426,4080 5475,3999 5508,3896 5541,3794 5547,3702 5529,3601 5510,3499 5472,3420 5407,3347 5342,3275 5269,3230 5175,3205 5081,3180 4993,3182 4895,3211 4797,3240 4718,3288 4642,3364 4569,3438 4520,3516 4487,3615 L 4484,3624 Z"/>
         <path fill="rgb(255,255,255)" stroke="none" d="M 4304,3293 C 4272,3395 4265,3487 4284,3587 4302,3689 4340,3768 4406,3841 4471,3914 4543,3958 4638,3983 4732,4008 4819,4007 4918,3977 5016,3948 5095,3900 5170,3824 5246,3748 5296,3667 5328,3565 5361,3463 5368,3370 5349,3269 5331,3168 5293,3089 5227,3016 5162,2943 5090,2898 4995,2873 4901,2848 4814,2850 4715,2879 4617,2909 4538,2957 4463,3032 4389,3106 4341,3185 4307,3283 L 4304,3293 Z"/>
         <path fill="rgb(255,255,255)" stroke="none" d="M 4114,3100 C 4081,3202 4075,3294 4093,3395 4112,3496 4150,3575 4215,3648 4280,3721 4353,3765 4447,3791 4541,3816 4629,3814 4727,3785 4825,3755 4904,3707 4980,3631 5055,3555 5105,3474 5138,3372 5171,3270 5177,3177 5159,3076 5140,2975 5102,2896 5037,2823 4972,2750 4899,2706 4805,2680 4710,2655 4623,2657 4525,2687 4427,2716 4348,2764 4272,2840 4198,2914 4150,2992 4117,3091 L 4114,3100 Z"/>
         <path fill="rgb(255,255,255)" stroke="none" d="M 3491,3413 C 3458,3514 3452,3607 3470,3707 3489,3808 3527,3888 3592,3960 3657,4033 3730,4078 3824,4103 3918,4128 4006,4126 4104,4097 4202,4068 4281,4020 4357,3944 4433,3868 4482,3787 4515,3685 4548,3582 4554,3490 4536,3389 4517,3288 4479,3208 4414,3136 4349,3063 4276,3018 4182,2993 4088,2968 4000,2970 3902,2999 3804,3028 3725,3076 3649,3152 3576,3226 3527,3304 3494,3403 L 3491,3413 Z"/>
         <path fill="rgb(255,255,255)" stroke="none" d="M 3081,3481 C 3049,3583 3042,3675 3061,3775 3079,3876 3118,3956 3183,4028 3248,4101 3320,4146 3415,4171 3509,4196 3597,4194 3695,4165 3793,4136 3872,4088 3947,4012 4023,3936 4073,3855 4105,3753 4138,3650 4145,3558 4126,3457 4108,3356 4070,3277 4004,3204 3939,3131 3867,3086 3772,3061 3678,3036 3591,3038 3492,3067 3394,3096 3315,3144 3240,3220 3166,3294 3118,3372 3084,3471 L 3081,3481 Z"/>
         <path fill="rgb(255,255,255)" stroke="none" d="M 2880,3374 C 2847,3476 2841,3568 2859,3668 2878,3769 2916,3849 2981,3922 3046,3994 3119,4039 3213,4064 3308,4089 3395,4087 3493,4058 3591,4029 3670,3981 3746,3905 3822,3829 3871,3748 3904,3646 3937,3544 3944,3451 3925,3350 3906,3249 3868,3170 3803,3097 3738,3024 3665,2979 3571,2954 3477,2929 3389,2931 3291,2960 3193,2990 3114,3037 3038,3113 2965,3187 2916,3265 2883,3364 L 2880,3374 Z"/>
         <path fill="rgb(255,255,255)" stroke="none" d="M 3528,4185 C 3496,4287 3489,4379 3508,4480 3526,4581 3564,4660 3630,4733 3695,4806 3767,4850 3862,4875 3956,4901 4043,4899 4142,4869 4240,4840 4319,4792 4394,4716 4470,4640 4519,4559 4552,4457 4585,4355 4592,4262 4573,4161 4555,4060 4516,3981 4451,3908 4386,3835 4314,3790 4219,3765 4125,3740 4037,3742 3939,3771 3841,3801 3762,3849 3687,3925 3613,3998 3565,4077 3531,4176 L 3528,4185 Z"/>
         <path fill="rgb(255,255,255)" stroke="none" d="M 3590,4308 C 3557,4410 3551,4502 3569,4602 3588,4703 3626,4783 3691,4856 3756,4928 3829,4973 3923,4998 4017,5023 4105,5021 4203,4992 4301,4963 4380,4915 4456,4839 4532,4763 4581,4682 4614,4580 4647,4478 4653,4385 4635,4284 4616,4183 4578,4104 4513,4031 4448,3958 4375,3913 4281,3888 4187,3863 4099,3865 4001,3894 3903,3924 3824,3971 3748,4047 3675,4121 3626,4199 3593,4298 L 3590,4308 Z"/>
         <path fill="rgb(255,255,255)" stroke="none" d="M 4095,4779 C 4062,4881 4056,4973 4074,5074 4093,5175 4131,5254 4196,5327 4261,5400 4334,5445 4428,5470 4522,5495 4610,5493 4708,5464 4806,5434 4885,5386 4961,5311 5037,5235 5086,5154 5119,5051 5152,4949 5158,4857 5140,4756 5121,4654 5083,4575 5018,4502 4953,4429 4880,4385 4786,4360 4692,4335 4604,4336 4506,4366 4408,4395 4329,4443 4253,4519 4180,4593 4131,4671 4098,4770 L 4095,4779 Z"/>
         <path fill="rgb(255,255,255)" stroke="none" d="M 4394,5001 C 4361,5103 4355,5195 4373,5296 4392,5397 4430,5476 4495,5549 4561,5622 4633,5666 4727,5691 4822,5717 4909,5715 5007,5685 5105,5656 5185,5608 5260,5532 5336,5456 5385,5375 5418,5273 5451,5171 5458,5078 5439,4977 5420,4876 5382,4797 5317,4724 5252,4651 5179,4606 5085,4581 4991,4556 4903,4558 4805,4587 4707,4617 4628,4665 4552,4741 4479,4814 4430,4893 4397,4992 L 4394,5001 Z"/>
         <path fill="rgb(255,255,255)" stroke="none" d="M 4668,5039 C 4636,5141 4629,5233 4648,5333 4666,5434 4704,5514 4770,5587 4835,5659 4907,5704 5002,5729 5096,5754 5184,5752 5282,5723 5380,5694 5459,5646 5534,5570 5610,5494 5660,5413 5692,5311 5725,5208 5732,5116 5713,5015 5695,4914 5657,4835 5591,4762 5526,4689 5454,4644 5359,4619 5265,4594 5178,4596 5079,4625 4981,4654 4902,4702 4827,4778 4753,4852 4705,4930 4671,5029 L 4668,5039 Z"/>
         <path fill="rgb(244,227,130)" stroke="none" d="M 3878,7035 C 3806,7262 3750,7456 3700,7656 3648,7860 3617,8008 3601,8129 3585,8251 3588,8309 3612,8316 3636,8323 3672,8276 3730,8167 3787,8058 3847,7919 3923,7722 3998,7526 4066,7332 4139,7101 4213,6870 4270,6672 4321,6469 4373,6266 4404,6118 4420,5996 4436,5875 4433,5816 4409,5809 4385,5802 4349,5849 4291,5958 4234,6067 4174,6207 4098,6403 4024,6596 3957,6787 3885,7014 L 3878,7035 Z"/>
         <path fill="rgb(244,227,130)" stroke="none" d="M 2781,6672 C 2709,6899 2654,7093 2603,7293 2551,7497 2520,7644 2504,7766 2488,7887 2491,7946 2515,7953 2539,7960 2576,7913 2633,7804 2690,7695 2750,7556 2826,7359 2901,7163 2969,6968 3042,6738 3116,6507 3173,6309 3225,6106 3276,5903 3307,5755 3323,5633 3340,5512 3336,5453 3312,5446 3289,5439 3252,5486 3195,5595 3137,5704 3077,5844 3001,6040 2927,6233 2861,6424 2788,6651 L 2781,6672 Z"/>
         <path fill="rgb(0,0,0)" stroke="none" d="M 4839,3796 C 4818,3875 4820,3947 4846,4026 4872,4105 4915,4167 4982,4224 5050,4282 5122,4318 5212,4338 5303,4359 5385,4359 5474,4337 5564,4315 5634,4279 5698,4221 5762,4163 5802,4100 5823,4021 5845,3942 5843,3870 5817,3791 5791,3712 5748,3650 5680,3592 5613,3534 5541,3499 5450,3478 5360,3457 5278,3458 5189,3479 5099,3501 5029,3537 4965,3596 4903,3652 4864,3712 4842,3788 L 4839,3796 Z"/>
         <path fill="none" stroke="rgb(0,0,0)" stroke-width="21" stroke-linejoin="miter" d="M 4839,3796 L 4839,3796 C 4818,3875 4820,3947 4846,4026 4872,4105 4915,4167 4982,4224 5050,4282 5122,4318 5212,4338 5303,4359 5385,4359 5474,4337 5564,4315 5634,4279 5698,4221 5762,4163 5802,4100 5823,4021 5845,3942 5843,3870 5817,3791 5791,3712 5748,3650 5680,3592 5613,3534 5541,3499 5450,3478 5360,3457 5278,3458 5189,3479 5099,3501 5029,3537 4965,3596 4903,3652 4864,3712 4842,3788"/>
         <path fill="rgb(255,255,255)" stroke="none" d="M 4809,3834 C 4787,3914 4789,3986 4815,4064 4841,4143 4884,4206 4952,4263 5019,4321 5091,4356 5182,4377 5272,4398 5354,4397 5444,4376 5533,4354 5603,4318 5667,4260 5731,4201 5771,4139 5793,4060 5814,3980 5812,3908 5786,3829 5760,3750 5717,3688 5650,3631 5582,3573 5510,3537 5420,3517 5329,3496 5247,3496 5158,3518 5068,3540 4998,3576 4934,3634 4872,3691 4833,3751 4811,3827 L 4809,3834 Z"/>
         <path fill="rgb(0,0,0)" stroke="none" d="M 4948,5004 C 4926,5083 4928,5155 4954,5234 4981,5313 5023,5375 5091,5433 5158,5490 5230,5526 5321,5547 5412,5567 5494,5567 5583,5545 5672,5524 5742,5487 5806,5429 5871,5371 5910,5308 5932,5229 5954,5150 5952,5078 5925,4999 5899,4920 5856,4858 5789,4800 5721,4743 5649,4707 5559,4686 5468,4665 5386,4666 5297,4688 5208,4709 5138,4746 5073,4804 5011,4860 4973,4920 4950,4997 L 4948,5004 Z"/>
         <path fill="none" stroke="rgb(0,0,0)" stroke-width="21" stroke-linejoin="miter" d="M 4948,5004 L 4948,5004 C 4926,5083 4928,5155 4954,5234 4981,5313 5023,5375 5091,5433 5158,5490 5230,5526 5321,5547 5412,5567 5494,5567 5583,5545 5672,5524 5742,5487 5806,5429 5871,5371 5910,5308 5932,5229 5954,5150 5952,5078 5925,4999 5899,4920 5856,4858 5789,4800 5721,4743 5649,4707 5559,4686 5468,4665 5386,4666 5297,4688 5208,4709 5138,4746 5073,4804 5011,4860 4973,4920 4950,4997"/>
         <path fill="rgb(255,255,255)" stroke="none" d="M 4917,5043 C 4895,5122 4897,5194 4924,5273 4950,5352 4993,5414 5060,5471 5128,5529 5200,5565 5290,5585 5381,5606 5463,5606 5552,5584 5641,5562 5711,5526 5776,5468 5840,5410 5879,5347 5901,5268 5923,5189 5921,5117 5895,5038 5868,4959 5826,4896 5758,4839 5691,4781 5619,4746 5528,4725 5438,4704 5356,4705 5266,4726 5177,4748 5107,4784 5043,4842 4980,4899 4942,4959 4919,5035 L 4917,5043 Z"/>
         <path fill="rgb(0,0,0)" stroke="none" d="M 4576,4407 C 4555,4486 4557,4558 4583,4637 4609,4716 4652,4778 4719,4836 4787,4893 4859,4929 4949,4950 5040,4970 5122,4970 5211,4948 5301,4927 5371,4890 5435,4832 5499,4774 5538,4711 5560,4632 5582,4553 5580,4481 5554,4402 5528,4323 5485,4261 5417,4203 5350,4146 5278,4110 5187,4089 5097,4069 5015,4069 4925,4091 4836,4112 4766,4149 4702,4207 4640,4263 4601,4323 4578,4400 L 4576,4407 Z"/>
         <path fill="none" stroke="rgb(0,0,0)" stroke-width="21" stroke-linejoin="miter" d="M 4576,4407 L 4576,4407 C 4555,4486 4557,4558 4583,4637 4609,4716 4652,4778 4719,4836 4787,4893 4859,4929 4949,4950 5040,4970 5122,4970 5211,4948 5301,4927 5371,4890 5435,4832 5499,4774 5538,4711 5560,4632 5582,4553 5580,4481 5554,4402 5528,4323 5485,4261 5417,4203 5350,4146 5278,4110 5187,4089 5097,4069 5015,4069 4925,4091 4836,4112 4766,4149 4702,4207 4640,4263 4601,4323 4578,4400"/>
         <path fill="rgb(255,255,255)" stroke="none" d="M 4546,4446 C 4524,4525 4526,4597 4552,4676 4578,4755 4621,4817 4689,4874 4756,4932 4828,4968 4919,4988 5009,5009 5091,5009 5180,4987 5270,4965 5340,4929 5404,4871 5468,4813 5508,4750 5529,4671 5551,4592 5549,4520 5523,4441 5497,4362 5454,4300 5387,4242 5319,4184 5247,4149 5157,4128 5066,4107 4984,4108 4895,4129 4805,4151 4735,4187 4671,4246 4609,4302 4570,4362 4548,4438 L 4546,4446 Z"/>
         <path fill="rgb(0,0,0)" stroke="none" d="M 4025,3930 C 4003,4009 4005,4081 4032,4160 4058,4239 4101,4301 4168,4358 4236,4416 4308,4452 4398,4472 4489,4493 4571,4493 4660,4471 4750,4450 4820,4413 4884,4355 4948,4297 4987,4234 5009,4155 5031,4076 5029,4004 5003,3925 4976,3846 4934,3784 4866,3726 4799,3669 4727,3633 4636,3612 4546,3591 4464,3592 4374,3613 4285,3635 4215,3671 4151,3730 4088,3786 4050,3846 4027,3922 L 4025,3930 Z"/>
         <path fill="none" stroke="rgb(0,0,0)" stroke-width="21" stroke-linejoin="miter" d="M 4025,3930 L 4025,3930 C 4003,4009 4005,4081 4032,4160 4058,4239 4101,4301 4168,4358 4236,4416 4308,4452 4398,4472 4489,4493 4571,4493 4660,4471 4750,4450 4820,4413 4884,4355 4948,4297 4987,4234 5009,4155 5031,4076 5029,4004 5003,3925 4976,3846 4934,3784 4866,3726 4799,3669 4727,3633 4636,3612 4546,3591 4464,3592 4374,3613 4285,3635 4215,3671 4151,3730 4088,3786 4050,3846 4027,3922"/>
         <path fill="rgb(255,255,255)" stroke="none" d="M 3994,3968 C 3973,4048 3975,4120 4001,4198 4027,4277 4070,4340 4137,4397 4205,4455 4277,4490 4367,4511 4458,4532 4540,4531 4629,4510 4719,4488 4789,4452 4853,4394 4917,4335 4956,4273 4978,4194 5000,4114 4998,4042 4972,3963 4946,3884 4903,3822 4835,3765 4768,3707 4696,3672 4605,3651 4515,3630 4433,3630 4344,3652 4254,3674 4184,3710 4120,3768 4058,3825 4019,3885 3997,3961 L 3994,3968 Z"/>
         <path fill="rgb(0,0,0)" stroke="none" d="M 4694,5293 C 4675,5362 4676,5424 4699,5492 4722,5560 4759,5614 4817,5664 4875,5714 4938,5744 5016,5762 5094,5780 5165,5780 5242,5761 5320,5743 5380,5711 5436,5661 5491,5610 5525,5556 5544,5488 5563,5419 5561,5357 5539,5289 5516,5221 5479,5167 5421,5117 5362,5067 5300,5037 5222,5019 5143,5001 5073,5001 4995,5020 4918,5038 4858,5070 4802,5120 4748,5169 4715,5221 4695,5287 L 4694,5293 Z"/>
         <path fill="none" stroke="rgb(0,0,0)" stroke-width="18" stroke-linejoin="miter" d="M 4694,5293 L 4694,5293 C 4675,5362 4676,5424 4699,5492 4722,5560 4759,5614 4817,5664 4875,5714 4938,5744 5016,5762 5094,5780 5165,5780 5242,5761 5320,5743 5380,5711 5436,5661 5491,5610 5525,5556 5544,5488 5563,5419 5561,5357 5539,5289 5516,5221 5479,5167 5421,5117 5362,5067 5300,5037 5222,5019 5143,5001 5073,5001 4995,5020 4918,5038 4858,5070 4802,5120 4748,5169 4715,5221 4695,5287"/>
         <path fill="rgb(255,255,255)" stroke="none" d="M 4667,5327 C 4648,5395 4650,5457 4673,5526 4695,5594 4732,5648 4791,5697 4849,5747 4911,5778 4989,5796 5068,5814 5139,5813 5216,5795 5293,5776 5354,5745 5409,5694 5465,5644 5499,5590 5518,5521 5536,5453 5535,5391 5512,5322 5489,5254 5452,5200 5394,5151 5336,5101 5273,5070 5195,5052 5117,5034 5046,5034 4969,5053 4891,5072 4831,5103 4775,5154 4722,5202 4688,5254 4669,5320 L 4667,5327 Z"/>
         <path fill="rgb(0,0,0)" stroke="none" d="M 4018,4657 C 4002,4717 4003,4772 4023,4833 4043,4893 4076,4941 4128,4985 4179,5029 4234,5056 4304,5072 4373,5088 4436,5087 4504,5071 4573,5054 4626,5026 4675,4982 4724,4937 4754,4889 4771,4829 4788,4768 4786,4713 4766,4653 4746,4592 4713,4545 4662,4501 4610,4457 4555,4429 4486,4414 4417,4398 4354,4398 4285,4415 4217,4431 4163,4459 4114,4503 4067,4547 4037,4593 4020,4651 L 4018,4657 Z"/>
         <path fill="none" stroke="rgb(0,0,0)" stroke-width="16" stroke-linejoin="miter" d="M 4018,4657 L 4018,4657 C 4002,4717 4003,4772 4023,4833 4043,4893 4076,4941 4128,4985 4179,5029 4234,5056 4304,5072 4373,5088 4436,5087 4504,5071 4573,5054 4626,5026 4675,4982 4724,4937 4754,4889 4771,4829 4788,4768 4786,4713 4766,4653 4746,4592 4713,4545 4662,4501 4610,4457 4555,4429 4486,4414 4417,4398 4354,4398 4285,4415 4217,4431 4163,4459 4114,4503 4067,4547 4037,4593 4020,4651"/>
         <path fill="rgb(255,255,255)" stroke="none" d="M 3995,4686 C 3978,4747 3980,4802 4000,4862 4020,4923 4053,4970 4104,5014 4156,5058 4211,5086 4280,5101 4349,5117 4412,5117 4481,5100 4549,5084 4602,5056 4652,5012 4701,4967 4731,4919 4748,4859 4764,4798 4763,4743 4743,4682 4723,4622 4690,4574 4638,4530 4587,4486 4532,4459 4462,4443 4393,4427 4330,4428 4262,4444 4193,4461 4140,4489 4091,4533 4043,4576 4014,4622 3996,4681 L 3995,4686 Z"/>
         <path fill="rgb(200,201,148)" stroke="none" d="M 1910,5065 C 2544,4404 2335,4422 1769,4975 1271,5461 1273,6633 1415,6904 1503,7074 2027,7569 1610,6798 1327,6274 1362,5637 1910,5065 L 1910,5065 Z"/>
        </g>
       </g>
      </g>
     </g>
    </g>
   </g>
  </g>
 </g>
</svg>